G04 #@! TF.GenerationSoftware,KiCad,Pcbnew,(6.0.7)*
G04 #@! TF.CreationDate,2022-10-12T11:09:06+01:00*
G04 #@! TF.ProjectId,RR_5V_HAT,52525f35-565f-4484-9154-2e6b69636164,rev?*
G04 #@! TF.SameCoordinates,Original*
G04 #@! TF.FileFunction,Soldermask,Bot*
G04 #@! TF.FilePolarity,Negative*
%FSLAX46Y46*%
G04 Gerber Fmt 4.6, Leading zero omitted, Abs format (unit mm)*
G04 Created by KiCad (PCBNEW (6.0.7)) date 2022-10-12 11:09:06*
%MOMM*%
%LPD*%
G01*
G04 APERTURE LIST*
%ADD10C,2.700000*%
%ADD11R,1.295400X1.295400*%
%ADD12C,1.295400*%
%ADD13R,1.700000X1.700000*%
%ADD14O,1.700000X1.700000*%
G04 APERTURE END LIST*
D10*
X171500000Y-62500000D03*
D11*
X169590000Y-43380000D03*
D12*
X169590000Y-45920000D03*
X169590000Y-48460000D03*
X169590000Y-51000000D03*
X169590000Y-53540000D03*
X169590000Y-56080000D03*
X169590000Y-58620000D03*
X177210000Y-58620000D03*
X177210000Y-56080000D03*
X177210000Y-53540000D03*
X177210000Y-51000000D03*
X177210000Y-48460000D03*
X177210000Y-45920000D03*
X177210000Y-43380000D03*
D13*
X198575000Y-56290400D03*
D14*
X196035000Y-56290400D03*
X198575000Y-53750400D03*
X196035000Y-53750400D03*
X198575000Y-51210400D03*
X196035000Y-51210400D03*
X198575000Y-48670400D03*
X196035000Y-48670400D03*
X198575000Y-46130400D03*
X196035000Y-46130400D03*
X198575000Y-43590400D03*
X196035000Y-43590400D03*
X198575000Y-41050400D03*
X196035000Y-41050400D03*
X198575000Y-38510400D03*
X196035000Y-38510400D03*
D10*
X229500000Y-39500000D03*
D11*
X223710000Y-43420000D03*
D12*
X223710000Y-45960000D03*
X223710000Y-48500000D03*
X223710000Y-51040000D03*
X223710000Y-53580000D03*
X223710000Y-56120000D03*
X223710000Y-58660000D03*
X231330000Y-58660000D03*
X231330000Y-56120000D03*
X231330000Y-53580000D03*
X231330000Y-51040000D03*
X231330000Y-48500000D03*
X231330000Y-45960000D03*
X231330000Y-43420000D03*
D13*
X214575000Y-56475000D03*
D14*
X212035000Y-56475000D03*
X214575000Y-53935000D03*
X212035000Y-53935000D03*
X214575000Y-51395000D03*
X212035000Y-51395000D03*
X214575000Y-48855000D03*
X212035000Y-48855000D03*
X214575000Y-46315000D03*
X212035000Y-46315000D03*
X214575000Y-43775000D03*
X212035000Y-43775000D03*
X214575000Y-41235000D03*
X212035000Y-41235000D03*
X214575000Y-38695000D03*
X212035000Y-38695000D03*
D13*
X182675000Y-56457800D03*
D14*
X180135000Y-56457800D03*
X182675000Y-53917800D03*
X180135000Y-53917800D03*
X182675000Y-51377800D03*
X180135000Y-51377800D03*
X182675000Y-48837800D03*
X180135000Y-48837800D03*
X182675000Y-46297800D03*
X180135000Y-46297800D03*
X182675000Y-43757800D03*
X180135000Y-43757800D03*
X182675000Y-41217800D03*
X180135000Y-41217800D03*
X182675000Y-38677800D03*
X180135000Y-38677800D03*
D11*
X185590000Y-39245000D03*
D12*
X185590000Y-41785000D03*
X185590000Y-44325000D03*
X185590000Y-46865000D03*
X185590000Y-49405000D03*
X185590000Y-51945000D03*
X185590000Y-54485000D03*
X193210000Y-54485000D03*
X193210000Y-51945000D03*
X193210000Y-49405000D03*
X193210000Y-46865000D03*
X193210000Y-44325000D03*
X193210000Y-41785000D03*
X193210000Y-39245000D03*
D11*
X201590000Y-39245000D03*
D12*
X201590000Y-41785000D03*
X201590000Y-44325000D03*
X201590000Y-46865000D03*
X201590000Y-49405000D03*
X201590000Y-51945000D03*
X201590000Y-54485000D03*
X209210000Y-54485000D03*
X209210000Y-51945000D03*
X209210000Y-49405000D03*
X209210000Y-46865000D03*
X209210000Y-44325000D03*
X209210000Y-41785000D03*
X209210000Y-39245000D03*
D13*
X203225000Y-63040000D03*
D14*
X203225000Y-60500000D03*
X205765000Y-63040000D03*
X205765000Y-60500000D03*
X208305000Y-63040000D03*
X208305000Y-60500000D03*
X210845000Y-63040000D03*
X210845000Y-60500000D03*
X213385000Y-63040000D03*
X213385000Y-60500000D03*
X215925000Y-63040000D03*
X215925000Y-60500000D03*
X218465000Y-63040000D03*
X218465000Y-60500000D03*
X221005000Y-63040000D03*
X221005000Y-60500000D03*
D13*
X197875000Y-60510000D03*
D14*
X197875000Y-63050000D03*
X195335000Y-60510000D03*
X195335000Y-63050000D03*
X192795000Y-60510000D03*
X192795000Y-63050000D03*
X190255000Y-60510000D03*
X190255000Y-63050000D03*
X187715000Y-60510000D03*
X187715000Y-63050000D03*
X185175000Y-60510000D03*
X185175000Y-63050000D03*
X182635000Y-60510000D03*
X182635000Y-63050000D03*
X180095000Y-60510000D03*
X180095000Y-63050000D03*
D10*
X171500000Y-39500000D03*
D13*
X218325000Y-38700000D03*
D14*
X220865000Y-38700000D03*
X218325000Y-41240000D03*
X220865000Y-41240000D03*
X218325000Y-43780000D03*
X220865000Y-43780000D03*
X218325000Y-46320000D03*
X220865000Y-46320000D03*
X218325000Y-48860000D03*
X220865000Y-48860000D03*
X218325000Y-51400000D03*
X220865000Y-51400000D03*
X218325000Y-53940000D03*
X220865000Y-53940000D03*
X218325000Y-56480000D03*
X220865000Y-56480000D03*
D10*
X229500000Y-62500000D03*
M02*
