G04 #@! TF.GenerationSoftware,KiCad,Pcbnew,(6.0.7)*
G04 #@! TF.CreationDate,2022-10-12T11:09:06+01:00*
G04 #@! TF.ProjectId,RR_5V_HAT,52525f35-565f-4484-9154-2e6b69636164,rev?*
G04 #@! TF.SameCoordinates,Original*
G04 #@! TF.FileFunction,Legend,Top*
G04 #@! TF.FilePolarity,Positive*
%FSLAX46Y46*%
G04 Gerber Fmt 4.6, Leading zero omitted, Abs format (unit mm)*
G04 Created by KiCad (PCBNEW (6.0.7)) date 2022-10-12 11:09:06*
%MOMM*%
%LPD*%
G01*
G04 APERTURE LIST*
%ADD10C,0.150000*%
%ADD11C,0.120000*%
G04 APERTURE END LIST*
D10*
X191516000Y-62484000D02*
X191516000Y-63754000D01*
X183896000Y-61722000D02*
X188976000Y-61722000D01*
X194056000Y-61722000D02*
X194056000Y-65600000D01*
X186436000Y-61722000D02*
X186436000Y-64363600D01*
X188976000Y-61722000D02*
X194056000Y-61722000D01*
X212090000Y-64008000D02*
X212090000Y-61722000D01*
X183896000Y-61722000D02*
X181356000Y-61722000D01*
X212090000Y-61722000D02*
X212090000Y-64008000D01*
X188976000Y-62484000D02*
X188976000Y-63754000D01*
X186436000Y-59944000D02*
X186436000Y-60960000D01*
X188976000Y-61722000D02*
X188976000Y-58200000D01*
X183896000Y-61722000D02*
X183896000Y-65600000D01*
X194056000Y-61722000D02*
X194056000Y-58200000D01*
X183896000Y-58200000D02*
X183896000Y-61722000D01*
X191516000Y-59944000D02*
X191516000Y-60960000D01*
X181356000Y-61722000D02*
X181356000Y-65600000D01*
X212090000Y-61722000D02*
X212090000Y-59600000D01*
X204800000Y-61722000D02*
X212090000Y-61722000D01*
X221996000Y-61722000D02*
X212090000Y-61722000D01*
X184376190Y-58872380D02*
X184376190Y-57872380D01*
X184614285Y-57872380D01*
X184757142Y-57920000D01*
X184852380Y-58015238D01*
X184900000Y-58110476D01*
X184947619Y-58300952D01*
X184947619Y-58443809D01*
X184900000Y-58634285D01*
X184852380Y-58729523D01*
X184757142Y-58824761D01*
X184614285Y-58872380D01*
X184376190Y-58872380D01*
X186042857Y-57872380D02*
X186661904Y-57872380D01*
X186328571Y-58253333D01*
X186471428Y-58253333D01*
X186566666Y-58300952D01*
X186614285Y-58348571D01*
X186661904Y-58443809D01*
X186661904Y-58681904D01*
X186614285Y-58777142D01*
X186566666Y-58824761D01*
X186471428Y-58872380D01*
X186185714Y-58872380D01*
X186090476Y-58824761D01*
X186042857Y-58777142D01*
X186947619Y-57872380D02*
X187280952Y-58872380D01*
X187614285Y-57872380D01*
X187852380Y-57872380D02*
X188471428Y-57872380D01*
X188138095Y-58253333D01*
X188280952Y-58253333D01*
X188376190Y-58300952D01*
X188423809Y-58348571D01*
X188471428Y-58443809D01*
X188471428Y-58681904D01*
X188423809Y-58777142D01*
X188376190Y-58824761D01*
X188280952Y-58872380D01*
X187995238Y-58872380D01*
X187900000Y-58824761D01*
X187852380Y-58777142D01*
X223271428Y-60328571D02*
X223414285Y-60376190D01*
X223461904Y-60423809D01*
X223509523Y-60519047D01*
X223509523Y-60661904D01*
X223461904Y-60757142D01*
X223414285Y-60804761D01*
X223319047Y-60852380D01*
X222938095Y-60852380D01*
X222938095Y-59852380D01*
X223271428Y-59852380D01*
X223366666Y-59900000D01*
X223414285Y-59947619D01*
X223461904Y-60042857D01*
X223461904Y-60138095D01*
X223414285Y-60233333D01*
X223366666Y-60280952D01*
X223271428Y-60328571D01*
X222938095Y-60328571D01*
X201309523Y-60957142D02*
X201261904Y-61004761D01*
X201119047Y-61052380D01*
X201023809Y-61052380D01*
X200880952Y-61004761D01*
X200785714Y-60909523D01*
X200738095Y-60814285D01*
X200690476Y-60623809D01*
X200690476Y-60480952D01*
X200738095Y-60290476D01*
X200785714Y-60195238D01*
X200880952Y-60100000D01*
X201023809Y-60052380D01*
X201119047Y-60052380D01*
X201261904Y-60100000D01*
X201309523Y-60147619D01*
X222961904Y-63366666D02*
X223438095Y-63366666D01*
X222866666Y-63652380D02*
X223200000Y-62652380D01*
X223533333Y-63652380D01*
X190242857Y-65508142D02*
X190195238Y-65555761D01*
X190052380Y-65603380D01*
X189957142Y-65603380D01*
X189814285Y-65555761D01*
X189719047Y-65460523D01*
X189671428Y-65365285D01*
X189623809Y-65174809D01*
X189623809Y-65031952D01*
X189671428Y-64841476D01*
X189719047Y-64746238D01*
X189814285Y-64651000D01*
X189957142Y-64603380D01*
X190052380Y-64603380D01*
X190195238Y-64651000D01*
X190242857Y-64698619D01*
X192671428Y-64603380D02*
X192195238Y-64603380D01*
X192147619Y-65079571D01*
X192195238Y-65031952D01*
X192290476Y-64984333D01*
X192528571Y-64984333D01*
X192623809Y-65031952D01*
X192671428Y-65079571D01*
X192719047Y-65174809D01*
X192719047Y-65412904D01*
X192671428Y-65508142D01*
X192623809Y-65555761D01*
X192528571Y-65603380D01*
X192290476Y-65603380D01*
X192195238Y-65555761D01*
X192147619Y-65508142D01*
X193004761Y-64603380D02*
X193338095Y-65603380D01*
X193671428Y-64603380D01*
X213233571Y-58328571D02*
X213281190Y-58185714D01*
X213328809Y-58138095D01*
X213424047Y-58090476D01*
X213566904Y-58090476D01*
X213662142Y-58138095D01*
X213709761Y-58185714D01*
X213757380Y-58280952D01*
X213757380Y-58661904D01*
X212757380Y-58661904D01*
X212757380Y-58328571D01*
X212805000Y-58233333D01*
X212852619Y-58185714D01*
X212947857Y-58138095D01*
X213043095Y-58138095D01*
X213138333Y-58185714D01*
X213185952Y-58233333D01*
X213233571Y-58328571D01*
X213233571Y-58661904D01*
X190004761Y-58348571D02*
X190147619Y-58396190D01*
X190195238Y-58443809D01*
X190242857Y-58539047D01*
X190242857Y-58681904D01*
X190195238Y-58777142D01*
X190147619Y-58824761D01*
X190052380Y-58872380D01*
X189671428Y-58872380D01*
X189671428Y-57872380D01*
X190004761Y-57872380D01*
X190100000Y-57920000D01*
X190147619Y-57967619D01*
X190195238Y-58062857D01*
X190195238Y-58158095D01*
X190147619Y-58253333D01*
X190100000Y-58300952D01*
X190004761Y-58348571D01*
X189671428Y-58348571D01*
X192671428Y-57872380D02*
X192195238Y-57872380D01*
X192147619Y-58348571D01*
X192195238Y-58300952D01*
X192290476Y-58253333D01*
X192528571Y-58253333D01*
X192623809Y-58300952D01*
X192671428Y-58348571D01*
X192719047Y-58443809D01*
X192719047Y-58681904D01*
X192671428Y-58777142D01*
X192623809Y-58824761D01*
X192528571Y-58872380D01*
X192290476Y-58872380D01*
X192195238Y-58824761D01*
X192147619Y-58777142D01*
X193004761Y-57872380D02*
X193338095Y-58872380D01*
X193671428Y-57872380D01*
X219566666Y-58638095D02*
X219566666Y-58161904D01*
X219852380Y-58733333D02*
X218852380Y-58400000D01*
X219852380Y-58066666D01*
X181952380Y-58661904D02*
X180952380Y-58661904D01*
X180952380Y-58423809D01*
X181000000Y-58280952D01*
X181095238Y-58185714D01*
X181190476Y-58138095D01*
X181380952Y-58090476D01*
X181523809Y-58090476D01*
X181714285Y-58138095D01*
X181809523Y-58185714D01*
X181904761Y-58280952D01*
X181952380Y-58423809D01*
X181952380Y-58661904D01*
X196837323Y-64603380D02*
X196361133Y-64603380D01*
X196313514Y-65079571D01*
X196361133Y-65031952D01*
X196456371Y-64984333D01*
X196694466Y-64984333D01*
X196789704Y-65031952D01*
X196837323Y-65079571D01*
X196884942Y-65174809D01*
X196884942Y-65412904D01*
X196837323Y-65508142D01*
X196789704Y-65555761D01*
X196694466Y-65603380D01*
X196456371Y-65603380D01*
X196361133Y-65555761D01*
X196313514Y-65508142D01*
X197170657Y-64603380D02*
X197503990Y-65603380D01*
X197837323Y-64603380D01*
X197857142Y-57990476D02*
X197904761Y-58038095D01*
X197952380Y-58180952D01*
X197952380Y-58276190D01*
X197904761Y-58419047D01*
X197809523Y-58514285D01*
X197714285Y-58561904D01*
X197523809Y-58609523D01*
X197380952Y-58609523D01*
X197190476Y-58561904D01*
X197095238Y-58514285D01*
X197000000Y-58419047D01*
X196952380Y-58276190D01*
X196952380Y-58180952D01*
X197000000Y-58038095D01*
X197047619Y-57990476D01*
X185223304Y-64603380D02*
X185842352Y-64603380D01*
X185509019Y-64984333D01*
X185651876Y-64984333D01*
X185747114Y-65031952D01*
X185794733Y-65079571D01*
X185842352Y-65174809D01*
X185842352Y-65412904D01*
X185794733Y-65508142D01*
X185747114Y-65555761D01*
X185651876Y-65603380D01*
X185366161Y-65603380D01*
X185270923Y-65555761D01*
X185223304Y-65508142D01*
X186128066Y-64603380D02*
X186461400Y-65603380D01*
X186794733Y-64603380D01*
X187032828Y-64603380D02*
X187651876Y-64603380D01*
X187318542Y-64984333D01*
X187461400Y-64984333D01*
X187556638Y-65031952D01*
X187604257Y-65079571D01*
X187651876Y-65174809D01*
X187651876Y-65412904D01*
X187604257Y-65508142D01*
X187556638Y-65555761D01*
X187461400Y-65603380D01*
X187175685Y-65603380D01*
X187080447Y-65555761D01*
X187032828Y-65508142D01*
X178838095Y-64752600D02*
X178742857Y-64704980D01*
X178600000Y-64704980D01*
X178457142Y-64752600D01*
X178361904Y-64847838D01*
X178314285Y-64943076D01*
X178266666Y-65133552D01*
X178266666Y-65276409D01*
X178314285Y-65466885D01*
X178361904Y-65562123D01*
X178457142Y-65657361D01*
X178600000Y-65704980D01*
X178695238Y-65704980D01*
X178838095Y-65657361D01*
X178885714Y-65609742D01*
X178885714Y-65276409D01*
X178695238Y-65276409D01*
X179314285Y-65704980D02*
X179314285Y-64704980D01*
X179885714Y-65704980D01*
X179885714Y-64704980D01*
X180361904Y-65704980D02*
X180361904Y-64704980D01*
X180600000Y-64704980D01*
X180742857Y-64752600D01*
X180838095Y-64847838D01*
X180885714Y-64943076D01*
X180933333Y-65133552D01*
X180933333Y-65276409D01*
X180885714Y-65466885D01*
X180838095Y-65562123D01*
X180742857Y-65657361D01*
X180600000Y-65704980D01*
X180361904Y-65704980D01*
X200738095Y-63652380D02*
X200738095Y-62652380D01*
X200976190Y-62652380D01*
X201119047Y-62700000D01*
X201214285Y-62795238D01*
X201261904Y-62890476D01*
X201309523Y-63080952D01*
X201309523Y-63223809D01*
X201261904Y-63414285D01*
X201214285Y-63509523D01*
X201119047Y-63604761D01*
X200976190Y-63652380D01*
X200738095Y-63652380D01*
X170942095Y-60396380D02*
X170942095Y-59396380D01*
X170942095Y-59872571D02*
X171513523Y-59872571D01*
X171513523Y-60396380D02*
X171513523Y-59396380D01*
X172418285Y-59729714D02*
X172418285Y-60396380D01*
X172180190Y-59348761D02*
X171942095Y-60063047D01*
X172561142Y-60063047D01*
X172638095Y-50452380D02*
X172638095Y-51261904D01*
X172685714Y-51357142D01*
X172733333Y-51404761D01*
X172828571Y-51452380D01*
X173019047Y-51452380D01*
X173114285Y-51404761D01*
X173161904Y-51357142D01*
X173209523Y-51261904D01*
X173209523Y-50452380D01*
X174114285Y-50785714D02*
X174114285Y-51452380D01*
X173876190Y-50404761D02*
X173638095Y-51119047D01*
X174257142Y-51119047D01*
X200766666Y-57152380D02*
X200766666Y-57866666D01*
X200719047Y-58009523D01*
X200623809Y-58104761D01*
X200480952Y-58152380D01*
X200385714Y-58152380D01*
X201147619Y-57152380D02*
X201766666Y-57152380D01*
X201433333Y-57533333D01*
X201576190Y-57533333D01*
X201671428Y-57580952D01*
X201719047Y-57628571D01*
X201766666Y-57723809D01*
X201766666Y-57961904D01*
X201719047Y-58057142D01*
X201671428Y-58104761D01*
X201576190Y-58152380D01*
X201290476Y-58152380D01*
X201195238Y-58104761D01*
X201147619Y-58057142D01*
X228600095Y-42616380D02*
X228600095Y-41616380D01*
X228600095Y-42092571D02*
X229171523Y-42092571D01*
X229171523Y-42616380D02*
X229171523Y-41616380D01*
X229552476Y-41616380D02*
X230171523Y-41616380D01*
X229838190Y-41997333D01*
X229981047Y-41997333D01*
X230076285Y-42044952D01*
X230123904Y-42092571D01*
X230171523Y-42187809D01*
X230171523Y-42425904D01*
X230123904Y-42521142D01*
X230076285Y-42568761D01*
X229981047Y-42616380D01*
X229695333Y-42616380D01*
X229600095Y-42568761D01*
X229552476Y-42521142D01*
X226358095Y-50492380D02*
X226358095Y-51301904D01*
X226405714Y-51397142D01*
X226453333Y-51444761D01*
X226548571Y-51492380D01*
X226739047Y-51492380D01*
X226834285Y-51444761D01*
X226881904Y-51397142D01*
X226929523Y-51301904D01*
X226929523Y-50492380D01*
X227929523Y-51492380D02*
X227358095Y-51492380D01*
X227643809Y-51492380D02*
X227643809Y-50492380D01*
X227548571Y-50635238D01*
X227453333Y-50730476D01*
X227358095Y-50778095D01*
X208962666Y-57110380D02*
X208962666Y-57824666D01*
X208915047Y-57967523D01*
X208819809Y-58062761D01*
X208676952Y-58110380D01*
X208581714Y-58110380D01*
X209391238Y-57205619D02*
X209438857Y-57158000D01*
X209534095Y-57110380D01*
X209772190Y-57110380D01*
X209867428Y-57158000D01*
X209915047Y-57205619D01*
X209962666Y-57300857D01*
X209962666Y-57396095D01*
X209915047Y-57538952D01*
X209343619Y-58110380D01*
X209962666Y-58110380D01*
X177066666Y-37152380D02*
X177066666Y-37866666D01*
X177019047Y-38009523D01*
X176923809Y-38104761D01*
X176780952Y-38152380D01*
X176685714Y-38152380D01*
X177971428Y-37485714D02*
X177971428Y-38152380D01*
X177733333Y-37104761D02*
X177495238Y-37819047D01*
X178114285Y-37819047D01*
X188638095Y-46317380D02*
X188638095Y-47126904D01*
X188685714Y-47222142D01*
X188733333Y-47269761D01*
X188828571Y-47317380D01*
X189019047Y-47317380D01*
X189114285Y-47269761D01*
X189161904Y-47222142D01*
X189209523Y-47126904D01*
X189209523Y-46317380D01*
X189590476Y-46317380D02*
X190209523Y-46317380D01*
X189876190Y-46698333D01*
X190019047Y-46698333D01*
X190114285Y-46745952D01*
X190161904Y-46793571D01*
X190209523Y-46888809D01*
X190209523Y-47126904D01*
X190161904Y-47222142D01*
X190114285Y-47269761D01*
X190019047Y-47317380D01*
X189733333Y-47317380D01*
X189638095Y-47269761D01*
X189590476Y-47222142D01*
X204638095Y-46317380D02*
X204638095Y-47126904D01*
X204685714Y-47222142D01*
X204733333Y-47269761D01*
X204828571Y-47317380D01*
X205019047Y-47317380D01*
X205114285Y-47269761D01*
X205161904Y-47222142D01*
X205209523Y-47126904D01*
X205209523Y-46317380D01*
X205638095Y-46412619D02*
X205685714Y-46365000D01*
X205780952Y-46317380D01*
X206019047Y-46317380D01*
X206114285Y-46365000D01*
X206161904Y-46412619D01*
X206209523Y-46507857D01*
X206209523Y-46603095D01*
X206161904Y-46745952D01*
X205590476Y-47317380D01*
X206209523Y-47317380D01*
X224466666Y-64052380D02*
X224466666Y-64766666D01*
X224419047Y-64909523D01*
X224323809Y-65004761D01*
X224180952Y-65052380D01*
X224085714Y-65052380D01*
X225419047Y-64052380D02*
X224942857Y-64052380D01*
X224895238Y-64528571D01*
X224942857Y-64480952D01*
X225038095Y-64433333D01*
X225276190Y-64433333D01*
X225371428Y-64480952D01*
X225419047Y-64528571D01*
X225466666Y-64623809D01*
X225466666Y-64861904D01*
X225419047Y-64957142D01*
X225371428Y-65004761D01*
X225276190Y-65052380D01*
X225038095Y-65052380D01*
X224942857Y-65004761D01*
X224895238Y-64957142D01*
X177066666Y-62552380D02*
X177066666Y-63266666D01*
X177019047Y-63409523D01*
X176923809Y-63504761D01*
X176780952Y-63552380D01*
X176685714Y-63552380D01*
X177971428Y-62552380D02*
X177780952Y-62552380D01*
X177685714Y-62600000D01*
X177638095Y-62647619D01*
X177542857Y-62790476D01*
X177495238Y-62980952D01*
X177495238Y-63361904D01*
X177542857Y-63457142D01*
X177590476Y-63504761D01*
X177685714Y-63552380D01*
X177876190Y-63552380D01*
X177971428Y-63504761D01*
X178019047Y-63457142D01*
X178066666Y-63361904D01*
X178066666Y-63123809D01*
X178019047Y-63028571D01*
X177971428Y-62980952D01*
X177876190Y-62933333D01*
X177685714Y-62933333D01*
X177590476Y-62980952D01*
X177542857Y-63028571D01*
X177495238Y-63123809D01*
X170942095Y-42362380D02*
X170942095Y-41362380D01*
X170942095Y-41838571D02*
X171513523Y-41838571D01*
X171513523Y-42362380D02*
X171513523Y-41362380D01*
X171942095Y-41457619D02*
X171989714Y-41410000D01*
X172084952Y-41362380D01*
X172323047Y-41362380D01*
X172418285Y-41410000D01*
X172465904Y-41457619D01*
X172513523Y-41552857D01*
X172513523Y-41648095D01*
X172465904Y-41790952D01*
X171894476Y-42362380D01*
X172513523Y-42362380D01*
X223186666Y-37044380D02*
X223186666Y-37758666D01*
X223139047Y-37901523D01*
X223043809Y-37996761D01*
X222900952Y-38044380D01*
X222805714Y-38044380D01*
X224186666Y-38044380D02*
X223615238Y-38044380D01*
X223900952Y-38044380D02*
X223900952Y-37044380D01*
X223805714Y-37187238D01*
X223710476Y-37282476D01*
X223615238Y-37330095D01*
X228854095Y-60650380D02*
X228854095Y-59650380D01*
X228854095Y-60126571D02*
X229425523Y-60126571D01*
X229425523Y-60650380D02*
X229425523Y-59650380D01*
X230425523Y-60650380D02*
X229854095Y-60650380D01*
X230139809Y-60650380D02*
X230139809Y-59650380D01*
X230044571Y-59793238D01*
X229949333Y-59888476D01*
X229854095Y-59936095D01*
D11*
X176702000Y-55241431D02*
X176702000Y-54378569D01*
X170098000Y-46758569D02*
X170098000Y-47621431D01*
X170098000Y-54378569D02*
X170098000Y-55241431D01*
X170098000Y-44360440D02*
X170098000Y-45081431D01*
X176702000Y-47621431D02*
X176702000Y-46758569D01*
X170098000Y-56918569D02*
X170098000Y-57781431D01*
X170098000Y-51838569D02*
X170098000Y-52701431D01*
X176702000Y-41157500D02*
X170098000Y-41157500D01*
X170098000Y-41157500D02*
X170098000Y-42399560D01*
X176702000Y-50161431D02*
X176702000Y-49298569D01*
X170098000Y-60842500D02*
X176702000Y-60842500D01*
X176702000Y-60842500D02*
X176702000Y-59458569D01*
X176702000Y-52701431D02*
X176702000Y-51838569D01*
X176702000Y-45081431D02*
X176702000Y-44218569D01*
X170098000Y-59458569D02*
X170098000Y-60842500D01*
X176702000Y-42541431D02*
X176702000Y-41157500D01*
X176702000Y-57781431D02*
X176702000Y-56918569D01*
X170098000Y-49298569D02*
X170098000Y-50161431D01*
X173095200Y-41157500D02*
G75*
G03*
X173704800Y-41157500I304800J0D01*
G01*
X194705000Y-57620400D02*
X194705000Y-37180400D01*
X199905000Y-55020400D02*
X197305000Y-55020400D01*
X197305000Y-55020400D02*
X197305000Y-57620400D01*
X199905000Y-57620400D02*
X198575000Y-57620400D01*
X197305000Y-57620400D02*
X194705000Y-57620400D01*
X199905000Y-37180400D02*
X194705000Y-37180400D01*
X199905000Y-55020400D02*
X199905000Y-37180400D01*
X199905000Y-56290400D02*
X199905000Y-57620400D01*
X230822000Y-57821431D02*
X230822000Y-56958569D01*
X224218000Y-44400440D02*
X224218000Y-45121431D01*
X224218000Y-60882500D02*
X230822000Y-60882500D01*
X224218000Y-41197500D02*
X224218000Y-42439560D01*
X230822000Y-55281431D02*
X230822000Y-54418569D01*
X224218000Y-46798569D02*
X224218000Y-47661431D01*
X224218000Y-49338569D02*
X224218000Y-50201431D01*
X224218000Y-51878569D02*
X224218000Y-52741431D01*
X224218000Y-54418569D02*
X224218000Y-55281431D01*
X230822000Y-52741431D02*
X230822000Y-51878569D01*
X230822000Y-41197500D02*
X224218000Y-41197500D01*
X230822000Y-60882500D02*
X230822000Y-59498569D01*
X224218000Y-59498569D02*
X224218000Y-60882500D01*
X230822000Y-45121431D02*
X230822000Y-44258569D01*
X230822000Y-50201431D02*
X230822000Y-49338569D01*
X224218000Y-56958569D02*
X224218000Y-57821431D01*
X230822000Y-47661431D02*
X230822000Y-46798569D01*
X230822000Y-42581431D02*
X230822000Y-41197500D01*
X227215200Y-41197500D02*
G75*
G03*
X227824800Y-41197500I304800J0D01*
G01*
X215905000Y-55205000D02*
X213305000Y-55205000D01*
X213305000Y-55205000D02*
X213305000Y-57805000D01*
X215905000Y-57805000D02*
X214575000Y-57805000D01*
X210705000Y-57805000D02*
X210705000Y-37365000D01*
X215905000Y-56475000D02*
X215905000Y-57805000D01*
X213305000Y-57805000D02*
X210705000Y-57805000D01*
X215905000Y-55205000D02*
X215905000Y-37365000D01*
X215905000Y-37365000D02*
X210705000Y-37365000D01*
X184005000Y-55187800D02*
X184005000Y-37347800D01*
X184005000Y-55187800D02*
X181405000Y-55187800D01*
X181405000Y-55187800D02*
X181405000Y-57787800D01*
X184005000Y-37347800D02*
X178805000Y-37347800D01*
X184005000Y-57787800D02*
X182675000Y-57787800D01*
X184005000Y-56457800D02*
X184005000Y-57787800D01*
X178805000Y-57787800D02*
X178805000Y-37347800D01*
X181405000Y-57787800D02*
X178805000Y-57787800D01*
X186098000Y-37022500D02*
X186098000Y-38264560D01*
X192702000Y-48566431D02*
X192702000Y-47703569D01*
X186098000Y-52783569D02*
X186098000Y-53646431D01*
X192702000Y-38406431D02*
X192702000Y-37022500D01*
X186098000Y-55323569D02*
X186098000Y-56707500D01*
X192702000Y-51106431D02*
X192702000Y-50243569D01*
X186098000Y-47703569D02*
X186098000Y-48566431D01*
X186098000Y-42623569D02*
X186098000Y-43486431D01*
X192702000Y-46026431D02*
X192702000Y-45163569D01*
X186098000Y-40225440D02*
X186098000Y-40946431D01*
X192702000Y-56707500D02*
X192702000Y-55323569D01*
X186098000Y-56707500D02*
X192702000Y-56707500D01*
X186098000Y-50243569D02*
X186098000Y-51106431D01*
X192702000Y-40946431D02*
X192702000Y-40083569D01*
X192702000Y-43486431D02*
X192702000Y-42623569D01*
X186098000Y-45163569D02*
X186098000Y-46026431D01*
X192702000Y-37022500D02*
X186098000Y-37022500D01*
X192702000Y-53646431D02*
X192702000Y-52783569D01*
X189095200Y-37022500D02*
G75*
G03*
X189704800Y-37022500I304800J0D01*
G01*
X208702000Y-56707500D02*
X208702000Y-55323569D01*
X208702000Y-48566431D02*
X208702000Y-47703569D01*
X202098000Y-42623569D02*
X202098000Y-43486431D01*
X208702000Y-53646431D02*
X208702000Y-52783569D01*
X208702000Y-43486431D02*
X208702000Y-42623569D01*
X202098000Y-55323569D02*
X202098000Y-56707500D01*
X208702000Y-37022500D02*
X202098000Y-37022500D01*
X202098000Y-50243569D02*
X202098000Y-51106431D01*
X202098000Y-56707500D02*
X208702000Y-56707500D01*
X202098000Y-52783569D02*
X202098000Y-53646431D01*
X208702000Y-38406431D02*
X208702000Y-37022500D01*
X202098000Y-40225440D02*
X202098000Y-40946431D01*
X202098000Y-37022500D02*
X202098000Y-38264560D01*
X208702000Y-40946431D02*
X208702000Y-40083569D01*
X208702000Y-51106431D02*
X208702000Y-50243569D01*
X202098000Y-47703569D02*
X202098000Y-48566431D01*
X208702000Y-46026431D02*
X208702000Y-45163569D01*
X202098000Y-45163569D02*
X202098000Y-46026431D01*
X205095200Y-37022500D02*
G75*
G03*
X205704800Y-37022500I304800J0D01*
G01*
X204495000Y-61770000D02*
X201895000Y-61770000D01*
X201895000Y-64370000D02*
X201895000Y-63040000D01*
X203225000Y-64370000D02*
X201895000Y-64370000D01*
X201895000Y-61770000D02*
X201895000Y-59170000D01*
X204495000Y-64370000D02*
X204495000Y-61770000D01*
X204495000Y-64370000D02*
X222335000Y-64370000D01*
X201895000Y-59170000D02*
X222335000Y-59170000D01*
X222335000Y-64370000D02*
X222335000Y-59170000D01*
X178765000Y-59180000D02*
X178765000Y-64380000D01*
X197875000Y-59180000D02*
X199205000Y-59180000D01*
X199205000Y-59180000D02*
X199205000Y-60510000D01*
X196605000Y-59180000D02*
X196605000Y-61780000D01*
X199205000Y-61780000D02*
X199205000Y-64380000D01*
X196605000Y-59180000D02*
X178765000Y-59180000D01*
X196605000Y-61780000D02*
X199205000Y-61780000D01*
X199205000Y-64380000D02*
X178765000Y-64380000D01*
X219595000Y-39970000D02*
X219595000Y-37370000D01*
X222195000Y-37370000D02*
X222195000Y-57810000D01*
X216995000Y-39970000D02*
X216995000Y-57810000D01*
X216995000Y-37370000D02*
X218325000Y-37370000D01*
X216995000Y-39970000D02*
X219595000Y-39970000D01*
X216995000Y-57810000D02*
X222195000Y-57810000D01*
X219595000Y-37370000D02*
X222195000Y-37370000D01*
X216995000Y-38700000D02*
X216995000Y-37370000D01*
M02*
