%TF.GenerationSoftware,KiCad,Pcbnew,(6.0.7)*%
%TF.CreationDate,2022-10-12T11:09:08+01:00*%
%TF.ProjectId,RR_5V_HAT,52525f35-565f-4484-9154-2e6b69636164,rev?*%
%TF.SameCoordinates,Original*%
%TF.FileFunction,Drillmap*%
%TF.FilePolarity,Positive*%
%FSLAX45Y45*%
G04 Gerber Fmt 4.5, Leading zero omitted, Abs format (unit mm)*
G04 Created by KiCad (PCBNEW (6.0.7)) date 2022-10-12 11:09:08*
%MOMM*%
%LPD*%
G01*
G04 APERTURE LIST*
%ADD10C,0.100000*%
%ADD11C,0.200000*%
%ADD12C,0.270000*%
G04 APERTURE END LIST*
D10*
X23300000Y-3900000D02*
G75*
G03*
X23000000Y-3600000I-300000J0D01*
G01*
X16800000Y-6300000D02*
G75*
G03*
X17100000Y-6600000I300000J0D01*
G01*
X17100000Y-3600000D02*
X23000000Y-3600000D01*
X23300000Y-3900000D02*
X23300000Y-6300000D01*
X23000000Y-6600000D02*
G75*
G03*
X23300000Y-6300000I0J300000D01*
G01*
X16800000Y-6300000D02*
X16800000Y-3900000D01*
X17100000Y-3600000D02*
G75*
G03*
X16800000Y-3900000I0J-300000D01*
G01*
X23000000Y-6600000D02*
X17100000Y-6600000D01*
D11*
D12*
X17015000Y-3815000D02*
X17285000Y-4085000D01*
X17285000Y-3815000D02*
X17015000Y-4085000D01*
X17015000Y-6115000D02*
X17285000Y-6385000D01*
X17285000Y-6115000D02*
X17015000Y-6385000D01*
X22815000Y-3815000D02*
X23085000Y-4085000D01*
X23085000Y-3815000D02*
X22815000Y-4085000D01*
X22815000Y-6115000D02*
X23085000Y-6385000D01*
X23085000Y-6115000D02*
X22815000Y-6385000D01*
D11*
X17052619Y-6915476D02*
X17052619Y-6715476D01*
X17100238Y-6715476D01*
X17128810Y-6725000D01*
X17147857Y-6744048D01*
X17157381Y-6763095D01*
X17166905Y-6801190D01*
X17166905Y-6829762D01*
X17157381Y-6867857D01*
X17147857Y-6886905D01*
X17128810Y-6905952D01*
X17100238Y-6915476D01*
X17052619Y-6915476D01*
X17252619Y-6915476D02*
X17252619Y-6782143D01*
X17252619Y-6820238D02*
X17262143Y-6801190D01*
X17271667Y-6791667D01*
X17290714Y-6782143D01*
X17309762Y-6782143D01*
X17376429Y-6915476D02*
X17376429Y-6782143D01*
X17376429Y-6715476D02*
X17366905Y-6725000D01*
X17376429Y-6734524D01*
X17385952Y-6725000D01*
X17376429Y-6715476D01*
X17376429Y-6734524D01*
X17500238Y-6915476D02*
X17481190Y-6905952D01*
X17471667Y-6886905D01*
X17471667Y-6715476D01*
X17605000Y-6915476D02*
X17585952Y-6905952D01*
X17576429Y-6886905D01*
X17576429Y-6715476D01*
X17833571Y-6915476D02*
X17833571Y-6715476D01*
X17900238Y-6858333D01*
X17966905Y-6715476D01*
X17966905Y-6915476D01*
X18147857Y-6915476D02*
X18147857Y-6810714D01*
X18138333Y-6791667D01*
X18119286Y-6782143D01*
X18081190Y-6782143D01*
X18062143Y-6791667D01*
X18147857Y-6905952D02*
X18128810Y-6915476D01*
X18081190Y-6915476D01*
X18062143Y-6905952D01*
X18052619Y-6886905D01*
X18052619Y-6867857D01*
X18062143Y-6848809D01*
X18081190Y-6839286D01*
X18128810Y-6839286D01*
X18147857Y-6829762D01*
X18243095Y-6782143D02*
X18243095Y-6982143D01*
X18243095Y-6791667D02*
X18262143Y-6782143D01*
X18300238Y-6782143D01*
X18319286Y-6791667D01*
X18328810Y-6801190D01*
X18338333Y-6820238D01*
X18338333Y-6877381D01*
X18328810Y-6896428D01*
X18319286Y-6905952D01*
X18300238Y-6915476D01*
X18262143Y-6915476D01*
X18243095Y-6905952D01*
X18424048Y-6896428D02*
X18433571Y-6905952D01*
X18424048Y-6915476D01*
X18414524Y-6905952D01*
X18424048Y-6896428D01*
X18424048Y-6915476D01*
X18424048Y-6791667D02*
X18433571Y-6801190D01*
X18424048Y-6810714D01*
X18414524Y-6801190D01*
X18424048Y-6791667D01*
X18424048Y-6810714D01*
X16595000Y-7145000D02*
X16795000Y-7345000D01*
X16795000Y-7145000D02*
X16595000Y-7345000D01*
X17043095Y-7154524D02*
X17052619Y-7145000D01*
X17071667Y-7135476D01*
X17119286Y-7135476D01*
X17138333Y-7145000D01*
X17147857Y-7154524D01*
X17157381Y-7173571D01*
X17157381Y-7192619D01*
X17147857Y-7221190D01*
X17033571Y-7335476D01*
X17157381Y-7335476D01*
X17243095Y-7316428D02*
X17252619Y-7325952D01*
X17243095Y-7335476D01*
X17233571Y-7325952D01*
X17243095Y-7316428D01*
X17243095Y-7335476D01*
X17319286Y-7135476D02*
X17452619Y-7135476D01*
X17366905Y-7335476D01*
X17566905Y-7135476D02*
X17585952Y-7135476D01*
X17605000Y-7145000D01*
X17614524Y-7154524D01*
X17624048Y-7173571D01*
X17633571Y-7211667D01*
X17633571Y-7259286D01*
X17624048Y-7297381D01*
X17614524Y-7316428D01*
X17605000Y-7325952D01*
X17585952Y-7335476D01*
X17566905Y-7335476D01*
X17547857Y-7325952D01*
X17538333Y-7316428D01*
X17528810Y-7297381D01*
X17519286Y-7259286D01*
X17519286Y-7211667D01*
X17528810Y-7173571D01*
X17538333Y-7154524D01*
X17547857Y-7145000D01*
X17566905Y-7135476D01*
X17757381Y-7135476D02*
X17776429Y-7135476D01*
X17795476Y-7145000D01*
X17805000Y-7154524D01*
X17814524Y-7173571D01*
X17824048Y-7211667D01*
X17824048Y-7259286D01*
X17814524Y-7297381D01*
X17805000Y-7316428D01*
X17795476Y-7325952D01*
X17776429Y-7335476D01*
X17757381Y-7335476D01*
X17738333Y-7325952D01*
X17728810Y-7316428D01*
X17719286Y-7297381D01*
X17709762Y-7259286D01*
X17709762Y-7211667D01*
X17719286Y-7173571D01*
X17728810Y-7154524D01*
X17738333Y-7145000D01*
X17757381Y-7135476D01*
X17909762Y-7335476D02*
X17909762Y-7202143D01*
X17909762Y-7221190D02*
X17919286Y-7211667D01*
X17938333Y-7202143D01*
X17966905Y-7202143D01*
X17985952Y-7211667D01*
X17995476Y-7230714D01*
X17995476Y-7335476D01*
X17995476Y-7230714D02*
X18005000Y-7211667D01*
X18024048Y-7202143D01*
X18052619Y-7202143D01*
X18071667Y-7211667D01*
X18081190Y-7230714D01*
X18081190Y-7335476D01*
X18176429Y-7335476D02*
X18176429Y-7202143D01*
X18176429Y-7221190D02*
X18185952Y-7211667D01*
X18205000Y-7202143D01*
X18233571Y-7202143D01*
X18252619Y-7211667D01*
X18262143Y-7230714D01*
X18262143Y-7335476D01*
X18262143Y-7230714D02*
X18271667Y-7211667D01*
X18290714Y-7202143D01*
X18319286Y-7202143D01*
X18338333Y-7211667D01*
X18347857Y-7230714D01*
X18347857Y-7335476D01*
X18738333Y-7125952D02*
X18566905Y-7383095D01*
X18995476Y-7135476D02*
X19014524Y-7135476D01*
X19033571Y-7145000D01*
X19043095Y-7154524D01*
X19052619Y-7173571D01*
X19062143Y-7211667D01*
X19062143Y-7259286D01*
X19052619Y-7297381D01*
X19043095Y-7316428D01*
X19033571Y-7325952D01*
X19014524Y-7335476D01*
X18995476Y-7335476D01*
X18976429Y-7325952D01*
X18966905Y-7316428D01*
X18957381Y-7297381D01*
X18947857Y-7259286D01*
X18947857Y-7211667D01*
X18957381Y-7173571D01*
X18966905Y-7154524D01*
X18976429Y-7145000D01*
X18995476Y-7135476D01*
X19147857Y-7316428D02*
X19157381Y-7325952D01*
X19147857Y-7335476D01*
X19138333Y-7325952D01*
X19147857Y-7316428D01*
X19147857Y-7335476D01*
X19347857Y-7335476D02*
X19233571Y-7335476D01*
X19290714Y-7335476D02*
X19290714Y-7135476D01*
X19271667Y-7164048D01*
X19252619Y-7183095D01*
X19233571Y-7192619D01*
X19471667Y-7135476D02*
X19490714Y-7135476D01*
X19509762Y-7145000D01*
X19519286Y-7154524D01*
X19528810Y-7173571D01*
X19538333Y-7211667D01*
X19538333Y-7259286D01*
X19528810Y-7297381D01*
X19519286Y-7316428D01*
X19509762Y-7325952D01*
X19490714Y-7335476D01*
X19471667Y-7335476D01*
X19452619Y-7325952D01*
X19443095Y-7316428D01*
X19433571Y-7297381D01*
X19424048Y-7259286D01*
X19424048Y-7211667D01*
X19433571Y-7173571D01*
X19443095Y-7154524D01*
X19452619Y-7145000D01*
X19471667Y-7135476D01*
X19709762Y-7135476D02*
X19671667Y-7135476D01*
X19652619Y-7145000D01*
X19643095Y-7154524D01*
X19624048Y-7183095D01*
X19614524Y-7221190D01*
X19614524Y-7297381D01*
X19624048Y-7316428D01*
X19633571Y-7325952D01*
X19652619Y-7335476D01*
X19690714Y-7335476D01*
X19709762Y-7325952D01*
X19719286Y-7316428D01*
X19728810Y-7297381D01*
X19728810Y-7249762D01*
X19719286Y-7230714D01*
X19709762Y-7221190D01*
X19690714Y-7211667D01*
X19652619Y-7211667D01*
X19633571Y-7221190D01*
X19624048Y-7230714D01*
X19614524Y-7249762D01*
X19795476Y-7135476D02*
X19919286Y-7135476D01*
X19852619Y-7211667D01*
X19881190Y-7211667D01*
X19900238Y-7221190D01*
X19909762Y-7230714D01*
X19919286Y-7249762D01*
X19919286Y-7297381D01*
X19909762Y-7316428D01*
X19900238Y-7325952D01*
X19881190Y-7335476D01*
X19824048Y-7335476D01*
X19805000Y-7325952D01*
X19795476Y-7316428D01*
X19995476Y-7135476D02*
X19995476Y-7173571D01*
X20071667Y-7135476D02*
X20071667Y-7173571D01*
X20366905Y-7411667D02*
X20357381Y-7402143D01*
X20338333Y-7373571D01*
X20328810Y-7354524D01*
X20319286Y-7325952D01*
X20309762Y-7278333D01*
X20309762Y-7240238D01*
X20319286Y-7192619D01*
X20328810Y-7164048D01*
X20338333Y-7145000D01*
X20357381Y-7116428D01*
X20366905Y-7106905D01*
X20528810Y-7202143D02*
X20528810Y-7335476D01*
X20481190Y-7125952D02*
X20433571Y-7268809D01*
X20557381Y-7268809D01*
X20785952Y-7335476D02*
X20785952Y-7135476D01*
X20871667Y-7335476D02*
X20871667Y-7230714D01*
X20862143Y-7211667D01*
X20843095Y-7202143D01*
X20814524Y-7202143D01*
X20795476Y-7211667D01*
X20785952Y-7221190D01*
X20995476Y-7335476D02*
X20976429Y-7325952D01*
X20966905Y-7316428D01*
X20957381Y-7297381D01*
X20957381Y-7240238D01*
X20966905Y-7221190D01*
X20976429Y-7211667D01*
X20995476Y-7202143D01*
X21024048Y-7202143D01*
X21043095Y-7211667D01*
X21052619Y-7221190D01*
X21062143Y-7240238D01*
X21062143Y-7297381D01*
X21052619Y-7316428D01*
X21043095Y-7325952D01*
X21024048Y-7335476D01*
X20995476Y-7335476D01*
X21176429Y-7335476D02*
X21157381Y-7325952D01*
X21147857Y-7306905D01*
X21147857Y-7135476D01*
X21328810Y-7325952D02*
X21309762Y-7335476D01*
X21271667Y-7335476D01*
X21252619Y-7325952D01*
X21243095Y-7306905D01*
X21243095Y-7230714D01*
X21252619Y-7211667D01*
X21271667Y-7202143D01*
X21309762Y-7202143D01*
X21328810Y-7211667D01*
X21338333Y-7230714D01*
X21338333Y-7249762D01*
X21243095Y-7268809D01*
X21414524Y-7325952D02*
X21433571Y-7335476D01*
X21471667Y-7335476D01*
X21490714Y-7325952D01*
X21500238Y-7306905D01*
X21500238Y-7297381D01*
X21490714Y-7278333D01*
X21471667Y-7268809D01*
X21443095Y-7268809D01*
X21424048Y-7259286D01*
X21414524Y-7240238D01*
X21414524Y-7230714D01*
X21424048Y-7211667D01*
X21443095Y-7202143D01*
X21471667Y-7202143D01*
X21490714Y-7211667D01*
X21566905Y-7411667D02*
X21576429Y-7402143D01*
X21595476Y-7373571D01*
X21605000Y-7354524D01*
X21614524Y-7325952D01*
X21624048Y-7278333D01*
X21624048Y-7240238D01*
X21614524Y-7192619D01*
X21605000Y-7164048D01*
X21595476Y-7145000D01*
X21576429Y-7116428D01*
X21566905Y-7106905D01*
X21928810Y-7411667D02*
X21919286Y-7402143D01*
X21900238Y-7373571D01*
X21890714Y-7354524D01*
X21881190Y-7325952D01*
X21871667Y-7278333D01*
X21871667Y-7240238D01*
X21881190Y-7192619D01*
X21890714Y-7164048D01*
X21900238Y-7145000D01*
X21919286Y-7116428D01*
X21928810Y-7106905D01*
X22005000Y-7202143D02*
X22005000Y-7335476D01*
X22005000Y-7221190D02*
X22014524Y-7211667D01*
X22033571Y-7202143D01*
X22062143Y-7202143D01*
X22081190Y-7211667D01*
X22090714Y-7230714D01*
X22090714Y-7335476D01*
X22214524Y-7335476D02*
X22195476Y-7325952D01*
X22185952Y-7316428D01*
X22176429Y-7297381D01*
X22176429Y-7240238D01*
X22185952Y-7221190D01*
X22195476Y-7211667D01*
X22214524Y-7202143D01*
X22243095Y-7202143D01*
X22262143Y-7211667D01*
X22271667Y-7221190D01*
X22281190Y-7240238D01*
X22281190Y-7297381D01*
X22271667Y-7316428D01*
X22262143Y-7325952D01*
X22243095Y-7335476D01*
X22214524Y-7335476D01*
X22338333Y-7202143D02*
X22414524Y-7202143D01*
X22366905Y-7135476D02*
X22366905Y-7306905D01*
X22376428Y-7325952D01*
X22395476Y-7335476D01*
X22414524Y-7335476D01*
X22633571Y-7202143D02*
X22633571Y-7402143D01*
X22633571Y-7211667D02*
X22652619Y-7202143D01*
X22690714Y-7202143D01*
X22709762Y-7211667D01*
X22719286Y-7221190D01*
X22728809Y-7240238D01*
X22728809Y-7297381D01*
X22719286Y-7316428D01*
X22709762Y-7325952D01*
X22690714Y-7335476D01*
X22652619Y-7335476D01*
X22633571Y-7325952D01*
X22843095Y-7335476D02*
X22824048Y-7325952D01*
X22814524Y-7306905D01*
X22814524Y-7135476D01*
X23005000Y-7335476D02*
X23005000Y-7230714D01*
X22995476Y-7211667D01*
X22976428Y-7202143D01*
X22938333Y-7202143D01*
X22919286Y-7211667D01*
X23005000Y-7325952D02*
X22985952Y-7335476D01*
X22938333Y-7335476D01*
X22919286Y-7325952D01*
X22909762Y-7306905D01*
X22909762Y-7287857D01*
X22919286Y-7268809D01*
X22938333Y-7259286D01*
X22985952Y-7259286D01*
X23005000Y-7249762D01*
X23071667Y-7202143D02*
X23147857Y-7202143D01*
X23100238Y-7135476D02*
X23100238Y-7306905D01*
X23109762Y-7325952D01*
X23128809Y-7335476D01*
X23147857Y-7335476D01*
X23290714Y-7325952D02*
X23271667Y-7335476D01*
X23233571Y-7335476D01*
X23214524Y-7325952D01*
X23205000Y-7306905D01*
X23205000Y-7230714D01*
X23214524Y-7211667D01*
X23233571Y-7202143D01*
X23271667Y-7202143D01*
X23290714Y-7211667D01*
X23300238Y-7230714D01*
X23300238Y-7249762D01*
X23205000Y-7268809D01*
X23471667Y-7335476D02*
X23471667Y-7135476D01*
X23471667Y-7325952D02*
X23452619Y-7335476D01*
X23414524Y-7335476D01*
X23395476Y-7325952D01*
X23385952Y-7316428D01*
X23376428Y-7297381D01*
X23376428Y-7240238D01*
X23385952Y-7221190D01*
X23395476Y-7211667D01*
X23414524Y-7202143D01*
X23452619Y-7202143D01*
X23471667Y-7211667D01*
X23547857Y-7411667D02*
X23557381Y-7402143D01*
X23576428Y-7373571D01*
X23585952Y-7354524D01*
X23595476Y-7325952D01*
X23605000Y-7278333D01*
X23605000Y-7240238D01*
X23595476Y-7192619D01*
X23585952Y-7164048D01*
X23576428Y-7145000D01*
X23557381Y-7116428D01*
X23547857Y-7106905D01*
M02*
