M48
; DRILL file {KiCad (6.0.7)} date Wed Oct 12 11:09:08 2022
; FORMAT={-:-/ absolute / inch / decimal}
; #@! TF.CreationDate,2022-10-12T11:09:08+01:00
; #@! TF.GenerationSoftware,Kicad,Pcbnew,(6.0.7)
; #@! TF.FileFunction,Plated,1,2,PTH
FMAT,2
INCH
; #@! TA.AperFunction,Plated,PTH,ViaDrill
T1C0.0157
; #@! TA.AperFunction,Plated,PTH,ComponentDrill
T2C0.0310
; #@! TA.AperFunction,Plated,PTH,ComponentDrill
T3C0.0394
%
G90
G05
T1
X6.8205Y-2.0441
X6.8217Y-1.8516
X6.8331Y-2.2409
X6.8858Y-1.4823
X6.9008Y-2.5287
X6.9783Y-1.572
X7.3386Y-2.315
X7.452Y-1.561
X7.4626Y-1.8012
X7.4673Y-1.9484
X7.4689Y-2.0583
X7.5413Y-2.4311
X7.8602Y-2.439
X8.0276Y-1.9409
X8.0315Y-1.7894
X8.0827Y-1.565
X8.1094Y-2.2831
X8.1673Y-1.9449
X8.1713Y-2.0866
X8.1752Y-1.7933
X8.8189Y-2.426
X8.8898Y-1.6654
X8.8976Y-2.5079
X8.9114Y-1.4705
X8.9673Y-2.3299
X8.9898Y-2.1173
X8.9953Y-2.2299
X9.011Y-1.9469
X9.0157Y-1.8161
T2
X6.6768Y-1.7079
X6.6768Y-1.8079
X6.6768Y-1.9079
X6.6768Y-2.0079
X6.6768Y-2.1079
X6.6768Y-2.2079
X6.6768Y-2.3079
X6.9768Y-1.7079
X6.9768Y-1.8079
X6.9768Y-1.9079
X6.9768Y-2.0079
X6.9768Y-2.1079
X6.9768Y-2.2079
X6.9768Y-2.3079
X7.3067Y-1.5451
X7.3067Y-1.6451
X7.3067Y-1.7451
X7.3067Y-1.8451
X7.3067Y-1.9451
X7.3067Y-2.0451
X7.3067Y-2.1451
X7.6067Y-1.5451
X7.6067Y-1.6451
X7.6067Y-1.7451
X7.6067Y-1.8451
X7.6067Y-1.9451
X7.6067Y-2.0451
X7.6067Y-2.1451
X7.9366Y-1.5451
X7.9366Y-1.6451
X7.9366Y-1.7451
X7.9366Y-1.8451
X7.9366Y-1.9451
X7.9366Y-2.0451
X7.9366Y-2.1451
X8.2366Y-1.5451
X8.2366Y-1.6451
X8.2366Y-1.7451
X8.2366Y-1.8451
X8.2366Y-1.9451
X8.2366Y-2.0451
X8.2366Y-2.1451
X8.8075Y-1.7094
X8.8075Y-1.8094
X8.8075Y-1.9094
X8.8075Y-2.0094
X8.8075Y-2.1094
X8.8075Y-2.2094
X8.8075Y-2.3094
X9.1075Y-1.7094
X9.1075Y-1.8094
X9.1075Y-1.9094
X9.1075Y-2.0094
X9.1075Y-2.1094
X9.1075Y-2.2094
X9.1075Y-2.3094
T3
X7.0904Y-2.3823
X7.0904Y-2.4823
X7.0919Y-1.5227
X7.0919Y-1.6227
X7.0919Y-1.7227
X7.0919Y-1.8227
X7.0919Y-1.9227
X7.0919Y-2.0227
X7.0919Y-2.1227
X7.0919Y-2.2227
X7.1904Y-2.3823
X7.1904Y-2.4823
X7.1919Y-1.5227
X7.1919Y-1.6227
X7.1919Y-1.7227
X7.1919Y-1.8227
X7.1919Y-1.9227
X7.1919Y-2.0227
X7.1919Y-2.1227
X7.1919Y-2.2227
X7.2904Y-2.3823
X7.2904Y-2.4823
X7.3904Y-2.3823
X7.3904Y-2.4823
X7.4904Y-2.3823
X7.4904Y-2.4823
X7.5904Y-2.3823
X7.5904Y-2.4823
X7.6904Y-2.3823
X7.6904Y-2.4823
X7.7179Y-1.5162
X7.7179Y-1.6162
X7.7179Y-1.7162
X7.7179Y-1.8162
X7.7179Y-1.9162
X7.7179Y-2.0162
X7.7179Y-2.1162
X7.7179Y-2.2162
X7.7904Y-2.3823
X7.7904Y-2.4823
X7.8179Y-1.5162
X7.8179Y-1.6162
X7.8179Y-1.7162
X7.8179Y-1.8162
X7.8179Y-1.9162
X7.8179Y-2.0162
X7.8179Y-2.1162
X7.8179Y-2.2162
X8.001Y-2.3819
X8.001Y-2.4819
X8.101Y-2.3819
X8.101Y-2.4819
X8.201Y-2.3819
X8.201Y-2.4819
X8.301Y-2.3819
X8.301Y-2.4819
X8.3478Y-1.5234
X8.3478Y-1.6234
X8.3478Y-1.7234
X8.3478Y-1.8234
X8.3478Y-1.9234
X8.3478Y-2.0234
X8.3478Y-2.1234
X8.3478Y-2.2234
X8.401Y-2.3819
X8.401Y-2.4819
X8.4478Y-1.5234
X8.4478Y-1.6234
X8.4478Y-1.7234
X8.4478Y-1.8234
X8.4478Y-1.9234
X8.4478Y-2.0234
X8.4478Y-2.1234
X8.4478Y-2.2234
X8.501Y-2.3819
X8.501Y-2.4819
X8.5955Y-1.5236
X8.5955Y-1.6236
X8.5955Y-1.7236
X8.5955Y-1.8236
X8.5955Y-1.9236
X8.5955Y-2.0236
X8.5955Y-2.1236
X8.5955Y-2.2236
X8.601Y-2.3819
X8.601Y-2.4819
X8.6955Y-1.5236
X8.6955Y-1.6236
X8.6955Y-1.7236
X8.6955Y-1.8236
X8.6955Y-1.9236
X8.6955Y-2.0236
X8.6955Y-2.1236
X8.6955Y-2.2236
X8.701Y-2.3819
X8.701Y-2.4819
T0
M30
