G04 #@! TF.GenerationSoftware,KiCad,Pcbnew,(7.0.0)*
G04 #@! TF.CreationDate,2023-08-14T16:39:54+01:00*
G04 #@! TF.ProjectId,DevKit2022-Kicad7,4465764b-6974-4323-9032-322d4b696361,v1.0*
G04 #@! TF.SameCoordinates,Original*
G04 #@! TF.FileFunction,Other,User*
%FSLAX46Y46*%
G04 Gerber Fmt 4.6, Leading zero omitted, Abs format (unit mm)*
G04 Created by KiCad (PCBNEW (7.0.0)) date 2023-08-14 16:39:54*
%MOMM*%
%LPD*%
G01*
G04 APERTURE LIST*
%ADD10C,0.050000*%
G04 APERTURE END LIST*
D10*
X188253000Y-123102000D02*
X189193000Y-123102000D01*
X189193000Y-124962000D02*
X188253000Y-124962000D01*
X189193000Y-123102000D02*
X189193000Y-124962000D01*
X188253000Y-124962000D02*
X188253000Y-123102000D01*
X149820000Y-113199000D02*
X149820000Y-112259000D01*
X151680000Y-112259000D02*
X151680000Y-113199000D01*
X149820000Y-112259000D02*
X151680000Y-112259000D01*
X151680000Y-113199000D02*
X149820000Y-113199000D01*
X154138000Y-126534000D02*
X154138000Y-125594000D01*
X155998000Y-125594000D02*
X155998000Y-126534000D01*
X154138000Y-125594000D02*
X155998000Y-125594000D01*
X155998000Y-126534000D02*
X154138000Y-126534000D01*
X154138000Y-127677000D02*
X154138000Y-126737000D01*
X155998000Y-126737000D02*
X155998000Y-127677000D01*
X154138000Y-126737000D02*
X155998000Y-126737000D01*
X155998000Y-127677000D02*
X154138000Y-127677000D01*
X156170000Y-127677000D02*
X156170000Y-126737000D01*
X158030000Y-126737000D02*
X158030000Y-127677000D01*
X156170000Y-126737000D02*
X158030000Y-126737000D01*
X158030000Y-127677000D02*
X156170000Y-127677000D01*
X197143000Y-125769000D02*
X198083000Y-125769000D01*
X198083000Y-127629000D02*
X197143000Y-127629000D01*
X198083000Y-125769000D02*
X198083000Y-127629000D01*
X197143000Y-127629000D02*
X197143000Y-125769000D01*
X157530000Y-125571000D02*
X157530000Y-121731000D01*
X154130000Y-121731000D02*
X154130000Y-125571000D01*
X157530000Y-121731000D02*
X154130000Y-121731000D01*
X154130000Y-125571000D02*
X157530000Y-125571000D01*
X154194000Y-124364000D02*
X150354000Y-124364000D01*
X150354000Y-127764000D02*
X154194000Y-127764000D01*
X150354000Y-124364000D02*
X150354000Y-127764000D01*
X154194000Y-127764000D02*
X154194000Y-124364000D01*
X207878200Y-127994400D02*
G75*
G03*
X207878200Y-127994400I-2950000J0D01*
G01*
X149890000Y-127994400D02*
G75*
G03*
X149890000Y-127994400I-2950000J0D01*
G01*
X207893440Y-104982000D02*
G75*
G03*
X207893440Y-104982000I-2950000J0D01*
G01*
X149890000Y-104982000D02*
G75*
G03*
X149890000Y-104982000I-2950000J0D01*
G01*
X196498000Y-116341000D02*
X199998000Y-116341000D01*
X199998000Y-123341000D02*
X196498000Y-123341000D01*
X196498000Y-123341000D02*
X196498000Y-116341000D01*
X199998000Y-116341000D02*
X199998000Y-123341000D01*
X197149000Y-114285000D02*
X200109000Y-114285000D01*
X200109000Y-115745000D02*
X197149000Y-115745000D01*
X197149000Y-115745000D02*
X197149000Y-114285000D01*
X200109000Y-114285000D02*
X200109000Y-115745000D01*
X189282000Y-128234000D02*
X189282000Y-123634000D01*
X192482000Y-123634000D02*
X192482000Y-128234000D01*
X189282000Y-123634000D02*
X192482000Y-123634000D01*
X192482000Y-128234000D02*
X189282000Y-128234000D01*
X187104000Y-125219000D02*
X188564000Y-125219000D01*
X188564000Y-128179000D02*
X187104000Y-128179000D01*
X188564000Y-125219000D02*
X188564000Y-128179000D01*
X187104000Y-128179000D02*
X187104000Y-125219000D01*
X188040000Y-124942000D02*
X187120000Y-124942000D01*
X187120000Y-123122000D02*
X188040000Y-123122000D01*
X188040000Y-123122000D02*
X188040000Y-124942000D01*
X187120000Y-124942000D02*
X187120000Y-123122000D01*
X159746000Y-127667000D02*
X159746000Y-126747000D01*
X161566000Y-126747000D02*
X161566000Y-127667000D01*
X161566000Y-127667000D02*
X159746000Y-127667000D01*
X159746000Y-126747000D02*
X161566000Y-126747000D01*
X156190000Y-126524000D02*
X156190000Y-125604000D01*
X158010000Y-125604000D02*
X158010000Y-126524000D01*
X158010000Y-126524000D02*
X156190000Y-126524000D01*
X156190000Y-125604000D02*
X158010000Y-125604000D01*
X194791500Y-127002000D02*
X194791500Y-123602000D01*
X194791500Y-123602000D02*
X196751500Y-123602000D01*
X196751500Y-127002000D02*
X194791500Y-127002000D01*
X196751500Y-123602000D02*
X196751500Y-127002000D01*
X192696000Y-127002000D02*
X192696000Y-123602000D01*
X192696000Y-123602000D02*
X194656000Y-123602000D01*
X194656000Y-127002000D02*
X192696000Y-127002000D01*
X194656000Y-123602000D02*
X194656000Y-127002000D01*
X200710000Y-125647000D02*
X197310000Y-125647000D01*
X197310000Y-125647000D02*
X197310000Y-123687000D01*
X200710000Y-123687000D02*
X200710000Y-125647000D01*
X197310000Y-123687000D02*
X200710000Y-123687000D01*
X201826000Y-113132000D02*
X201826000Y-106982000D01*
X201826000Y-106982000D02*
X195676000Y-106982000D01*
X195676000Y-113132000D02*
X201826000Y-113132000D01*
X195676000Y-106982000D02*
X195676000Y-113132000D01*
X191416000Y-139698000D02*
X191416000Y-128418000D01*
X191416000Y-139698000D02*
X162916000Y-139698000D01*
X191416000Y-128418000D02*
X186916000Y-128418000D01*
X186916000Y-108198000D02*
X186916000Y-128418000D01*
X186916000Y-108198000D02*
X167416000Y-108198000D01*
X167416000Y-128418000D02*
X167416000Y-108198000D01*
X167416000Y-128418000D02*
X162916000Y-128418000D01*
X162916000Y-139698000D02*
X162916000Y-128418000D01*
X201851400Y-101886600D02*
X150001400Y-101886600D01*
X150001400Y-101886600D02*
X150001400Y-108036600D01*
X201851400Y-108036600D02*
X201851400Y-101886600D01*
X150001400Y-108036600D02*
X201851400Y-108036600D01*
X150943000Y-117356000D02*
X150943000Y-113436000D01*
X152833000Y-117356000D02*
X150953000Y-117356000D01*
X150953000Y-113436000D02*
X152833000Y-113436000D01*
X152843000Y-113436000D02*
X152843000Y-117356000D01*
X201097000Y-129681000D02*
X197177000Y-129681000D01*
X201097000Y-127791000D02*
X201097000Y-129671000D01*
X197177000Y-129671000D02*
X197177000Y-127791000D01*
X197177000Y-127781000D02*
X201097000Y-127781000D01*
X188806000Y-122844000D02*
X196006000Y-122844000D01*
X196006000Y-122844000D02*
X196006000Y-114044000D01*
X188806000Y-114044000D02*
X188806000Y-122844000D01*
X196006000Y-114044000D02*
X188806000Y-114044000D01*
X150667000Y-128110500D02*
X156167000Y-128110500D01*
X150667000Y-131510500D02*
X150667000Y-128110500D01*
X152317000Y-131510500D02*
X150667000Y-131510500D01*
X152317000Y-132160500D02*
X152317000Y-131510500D01*
X154517000Y-131510500D02*
X154517000Y-132160500D01*
X154517000Y-132160500D02*
X152317000Y-132160500D01*
X156167000Y-128110500D02*
X156167000Y-131510500D01*
X156167000Y-131510500D02*
X154517000Y-131510500D01*
X161821000Y-122867000D02*
X158221000Y-122867000D01*
X158221000Y-122867000D02*
X158221000Y-126467000D01*
X161821000Y-126467000D02*
X161821000Y-122867000D01*
X158221000Y-126467000D02*
X161821000Y-126467000D01*
X157017000Y-128110500D02*
X162517000Y-128110500D01*
X157017000Y-131510500D02*
X157017000Y-128110500D01*
X158667000Y-131510500D02*
X157017000Y-131510500D01*
X158667000Y-132160500D02*
X158667000Y-131510500D01*
X160867000Y-131510500D02*
X160867000Y-132160500D01*
X160867000Y-132160500D02*
X158667000Y-132160500D01*
X162517000Y-128110500D02*
X162517000Y-131510500D01*
X162517000Y-131510500D02*
X160867000Y-131510500D01*
M02*
