M48
; DRILL file {KiCad (7.0.0)} date Mon Aug 14 16:39:56 2023
; FORMAT={-:-/ absolute / inch / decimal}
; #@! TF.CreationDate,2023-08-14T16:39:56+01:00
; #@! TF.GenerationSoftware,Kicad,Pcbnew,(7.0.0)
; #@! TF.FileFunction,Plated,1,2,PTH
FMAT,2
INCH
; #@! TA.AperFunction,Plated,PTH,ViaDrill
T1C0.0157
; #@! TA.AperFunction,Plated,PTH,ComponentDrill
T2C0.0394
%
G90
G05
T1
X5.9825Y-5.0256
X6.0Y-4.7356
X6.045Y-4.8656
X6.06Y-4.3731
X6.2Y-4.5531
X6.23Y-4.9031
X6.2925Y-4.4931
X6.295Y-4.5531
X6.3Y-4.6681
X6.395Y-4.8306
X6.41Y-5.0106
X6.42Y-4.8756
X6.525Y-4.6331
X6.53Y-4.9781
X6.5373Y-4.2858
X6.5373Y-4.5531
X6.6427Y-4.2858
X6.71Y-4.4931
X6.75Y-4.8306
X6.82Y-4.9531
X6.835Y-4.4231
X6.84Y-4.6181
X7.085Y-4.4231
X7.085Y-4.8281
X7.09Y-4.6181
X7.38Y-4.8181
X7.4175Y-4.7706
X7.4225Y-4.8181
X7.5675Y-5.0781
X7.5675Y-5.1331
X7.6225Y-5.0781
X7.6225Y-5.1331
X7.68Y-5.0781
X7.68Y-5.1331
X7.74Y-5.0781
X7.74Y-5.1331
X7.85Y-4.4681
X7.915Y-4.5231
X7.925Y-4.9931
T2
X5.976Y-4.0821
X5.976Y-4.1821
X6.076Y-4.0821
X6.076Y-4.1821
X6.176Y-4.0821
X6.176Y-4.1821
X6.276Y-4.0821
X6.276Y-4.1821
X6.3Y-4.9081
X6.376Y-4.0821
X6.376Y-4.1821
X6.476Y-4.0821
X6.476Y-4.1821
X6.576Y-4.0821
X6.576Y-4.1821
X6.676Y-4.0821
X6.676Y-4.1821
X6.776Y-4.0821
X6.776Y-4.1821
X6.876Y-4.0821
X6.876Y-4.1821
X6.976Y-4.0821
X6.976Y-4.1821
X7.076Y-4.0821
X7.076Y-4.1821
X7.176Y-4.0821
X7.176Y-4.1821
X7.276Y-4.0821
X7.276Y-4.1821
X7.376Y-4.0821
X7.376Y-4.1821
X7.476Y-4.0821
X7.476Y-4.1821
X7.576Y-4.0821
X7.576Y-4.1821
X7.676Y-4.0821
X7.676Y-4.1821
X7.775Y-4.2831
X7.775Y-4.3831
X7.776Y-4.0821
X7.776Y-4.1821
X7.875Y-4.2831
X7.875Y-4.3831
X7.876Y-4.0821
X7.876Y-4.1821
T0
M30
