G04 #@! TF.GenerationSoftware,KiCad,Pcbnew,(7.0.0)*
G04 #@! TF.CreationDate,2023-08-14T16:39:54+01:00*
G04 #@! TF.ProjectId,DevKit2022-Kicad7,4465764b-6974-4323-9032-322d4b696361,v1.0*
G04 #@! TF.SameCoordinates,Original*
G04 #@! TF.FileFunction,Soldermask,Top*
G04 #@! TF.FilePolarity,Negative*
%FSLAX46Y46*%
G04 Gerber Fmt 4.6, Leading zero omitted, Abs format (unit mm)*
G04 Created by KiCad (PCBNEW (7.0.0)) date 2023-08-14 16:39:54*
%MOMM*%
%LPD*%
G01*
G04 APERTURE LIST*
G04 Aperture macros list*
%AMRoundRect*
0 Rectangle with rounded corners*
0 $1 Rounding radius*
0 $2 $3 $4 $5 $6 $7 $8 $9 X,Y pos of 4 corners*
0 Add a 4 corners polygon primitive as box body*
4,1,4,$2,$3,$4,$5,$6,$7,$8,$9,$2,$3,0*
0 Add four circle primitives for the rounded corners*
1,1,$1+$1,$2,$3*
1,1,$1+$1,$4,$5*
1,1,$1+$1,$6,$7*
1,1,$1+$1,$8,$9*
0 Add four rect primitives between the rounded corners*
20,1,$1+$1,$2,$3,$4,$5,0*
20,1,$1+$1,$4,$5,$6,$7,0*
20,1,$1+$1,$6,$7,$8,$9,0*
20,1,$1+$1,$8,$9,$2,$3,0*%
G04 Aperture macros list end*
%ADD10RoundRect,0.186000X-0.185000X0.135000X-0.185000X-0.135000X0.185000X-0.135000X0.185000X0.135000X0*%
%ADD11RoundRect,0.186000X-0.135000X-0.185000X0.135000X-0.185000X0.135000X0.185000X-0.135000X0.185000X0*%
%ADD12RoundRect,0.201000X0.150000X-0.587500X0.150000X0.587500X-0.150000X0.587500X-0.150000X-0.587500X0*%
%ADD13RoundRect,0.201000X0.587500X0.150000X-0.587500X0.150000X-0.587500X-0.150000X0.587500X-0.150000X0*%
%ADD14C,2.802000*%
%ADD15RoundRect,0.301000X0.650000X-1.000000X0.650000X1.000000X-0.650000X1.000000X-0.650000X-1.000000X0*%
%ADD16RoundRect,0.269750X-0.218750X-0.256250X0.218750X-0.256250X0.218750X0.256250X-0.218750X0.256250X0*%
%ADD17RoundRect,0.301000X-1.100000X0.325000X-1.100000X-0.325000X1.100000X-0.325000X1.100000X0.325000X0*%
%ADD18RoundRect,0.276000X-0.250000X0.225000X-0.250000X-0.225000X0.250000X-0.225000X0.250000X0.225000X0*%
%ADD19RoundRect,0.191000X0.170000X-0.140000X0.170000X0.140000X-0.170000X0.140000X-0.170000X-0.140000X0*%
%ADD20RoundRect,0.191000X-0.140000X-0.170000X0.140000X-0.170000X0.140000X0.170000X-0.140000X0.170000X0*%
%ADD21RoundRect,0.301000X-0.475000X0.250000X-0.475000X-0.250000X0.475000X-0.250000X0.475000X0.250000X0*%
%ADD22RoundRect,0.301000X-0.250000X-0.475000X0.250000X-0.475000X0.250000X0.475000X-0.250000X0.475000X0*%
%ADD23RoundRect,0.051000X0.850000X0.850000X-0.850000X0.850000X-0.850000X-0.850000X0.850000X-0.850000X0*%
%ADD24O,1.802000X1.802000*%
%ADD25RoundRect,0.051000X1.000000X0.450000X-1.000000X0.450000X-1.000000X-0.450000X1.000000X-0.450000X0*%
%ADD26RoundRect,0.051000X-0.450000X1.000000X-0.450000X-1.000000X0.450000X-1.000000X0.450000X1.000000X0*%
%ADD27RoundRect,0.051000X-0.850000X0.850000X-0.850000X-0.850000X0.850000X-0.850000X0.850000X0.850000X0*%
%ADD28RoundRect,0.351000X0.300000X-0.300000X0.300000X0.300000X-0.300000X0.300000X-0.300000X-0.300000X0*%
%ADD29RoundRect,0.351000X0.300000X0.300000X-0.300000X0.300000X-0.300000X-0.300000X0.300000X-0.300000X0*%
%ADD30RoundRect,0.051000X0.750000X-1.000000X0.750000X1.000000X-0.750000X1.000000X-0.750000X-1.000000X0*%
%ADD31RoundRect,0.051000X1.900000X-1.000000X1.900000X1.000000X-1.900000X1.000000X-1.900000X-1.000000X0*%
%ADD32RoundRect,0.051000X-0.700000X-0.525000X0.700000X-0.525000X0.700000X0.525000X-0.700000X0.525000X0*%
G04 APERTURE END LIST*
D10*
X188723000Y-123522000D03*
X188723000Y-124542000D03*
D11*
X150240000Y-112729000D03*
X151260000Y-112729000D03*
X154558000Y-126064000D03*
X155578000Y-126064000D03*
X154558000Y-127207000D03*
X155578000Y-127207000D03*
X156590000Y-127207000D03*
X157610000Y-127207000D03*
D10*
X197613000Y-126189000D03*
X197613000Y-127209000D03*
D12*
X154880000Y-124588500D03*
X156780000Y-124588500D03*
X155830000Y-122713500D03*
D13*
X153211500Y-127014000D03*
X153211500Y-125114000D03*
X151336500Y-126064000D03*
D14*
X204928200Y-127994400D03*
X146940000Y-127994400D03*
X204943440Y-104982000D03*
X146940000Y-104982000D03*
D15*
X198248000Y-121841000D03*
X198248000Y-117841000D03*
D16*
X197841500Y-115015000D03*
X199416500Y-115015000D03*
D17*
X190882000Y-124459000D03*
X190882000Y-127409000D03*
D18*
X187834000Y-125924000D03*
X187834000Y-127474000D03*
D19*
X187580000Y-124512000D03*
X187580000Y-123552000D03*
D20*
X160176000Y-127207000D03*
X161136000Y-127207000D03*
X156620000Y-126064000D03*
X157580000Y-126064000D03*
D21*
X195771500Y-124352000D03*
X195771500Y-126252000D03*
X193676000Y-124352000D03*
X193676000Y-126252000D03*
D22*
X198060000Y-124667000D03*
X199960000Y-124667000D03*
D23*
X200026000Y-111332000D03*
D24*
X197485999Y-111331999D03*
X200025999Y-108791999D03*
X197485999Y-108791999D03*
D25*
X185666000Y-126953000D03*
X185666000Y-125683000D03*
X185666000Y-124413000D03*
X185666000Y-123143000D03*
X185666000Y-121873000D03*
X185666000Y-120603000D03*
X185666000Y-119333000D03*
X185666000Y-118063000D03*
X185666000Y-116793000D03*
X185666000Y-115523000D03*
X185666000Y-114253000D03*
X185666000Y-112983000D03*
X185666000Y-111713000D03*
X185666000Y-110443000D03*
D26*
X182881000Y-109443000D03*
X181611000Y-109443000D03*
X180341000Y-109443000D03*
X179071000Y-109443000D03*
X177801000Y-109443000D03*
X176531000Y-109443000D03*
X175261000Y-109443000D03*
X173991000Y-109443000D03*
X172721000Y-109443000D03*
X171451000Y-109443000D03*
D25*
X168666000Y-110443000D03*
X168666000Y-111713000D03*
X168666000Y-112983000D03*
X168666000Y-114253000D03*
X168666000Y-115523000D03*
X168666000Y-116793000D03*
X168666000Y-118063000D03*
X168666000Y-119333000D03*
X168666000Y-120603000D03*
X168666000Y-121873000D03*
X168666000Y-123143000D03*
X168666000Y-124413000D03*
X168666000Y-125683000D03*
X168666000Y-126953000D03*
D27*
X200051400Y-103686600D03*
D24*
X200051399Y-106226599D03*
X197511399Y-103686599D03*
X197511399Y-106226599D03*
X194971399Y-103686599D03*
X194971399Y-106226599D03*
X192431399Y-103686599D03*
X192431399Y-106226599D03*
X189891399Y-103686599D03*
X189891399Y-106226599D03*
X187351399Y-103686599D03*
X187351399Y-106226599D03*
X184811399Y-103686599D03*
X184811399Y-106226599D03*
X182271399Y-103686599D03*
X182271399Y-106226599D03*
X179731399Y-103686599D03*
X179731399Y-106226599D03*
X177191399Y-103686599D03*
X177191399Y-106226599D03*
X174651399Y-103686599D03*
X174651399Y-106226599D03*
X172111399Y-103686599D03*
X172111399Y-106226599D03*
X169571399Y-103686599D03*
X169571399Y-106226599D03*
X167031399Y-103686599D03*
X167031399Y-106226599D03*
X164491399Y-103686599D03*
X164491399Y-106226599D03*
X161951399Y-103686599D03*
X161951399Y-106226599D03*
X159411399Y-103686599D03*
X159411399Y-106226599D03*
X156871399Y-103686599D03*
X156871399Y-106226599D03*
X154331399Y-103686599D03*
X154331399Y-106226599D03*
X151791399Y-103686599D03*
X151791399Y-106226599D03*
D28*
X151893000Y-116446000D03*
X151893000Y-114346000D03*
D29*
X200187000Y-128731000D03*
X198087000Y-128731000D03*
D30*
X190106000Y-121594000D03*
X192406000Y-121594000D03*
D31*
X192406000Y-115294000D03*
D30*
X194706000Y-121594000D03*
D32*
X151617000Y-129090500D03*
X155217000Y-129090500D03*
X151617000Y-130530500D03*
X155217000Y-130530500D03*
D27*
X160021000Y-124667000D03*
D32*
X157967000Y-129090500D03*
X161567000Y-129090500D03*
X157967000Y-130530500D03*
X161567000Y-130530500D03*
G36*
X154001926Y-126939536D02*
G01*
X154019893Y-127003811D01*
X154068182Y-127049074D01*
X154132943Y-127062735D01*
X154195398Y-127040835D01*
X154237627Y-126989500D01*
X154244627Y-126973646D01*
X154246097Y-126972487D01*
X154247882Y-126973051D01*
X154248419Y-126974844D01*
X154239000Y-127022199D01*
X154239000Y-127252425D01*
X154238152Y-127254060D01*
X154236327Y-127254308D01*
X154235073Y-127252959D01*
X154217367Y-127189116D01*
X154169709Y-127143890D01*
X154105566Y-127129671D01*
X154043262Y-127150519D01*
X154000410Y-127200691D01*
X153990421Y-127222113D01*
X153988941Y-127223240D01*
X153987173Y-127222661D01*
X153986646Y-127220878D01*
X153998000Y-127163801D01*
X153998000Y-126940074D01*
X153998847Y-126938440D01*
X154000671Y-126938190D01*
X154001926Y-126939536D01*
G37*
M02*
