%TF.GenerationSoftware,KiCad,Pcbnew,(7.0.0)*%
%TF.CreationDate,2023-08-14T16:39:57+01:00*%
%TF.ProjectId,DevKit2022-Kicad7,4465764b-6974-4323-9032-322d4b696361,v1.0*%
%TF.SameCoordinates,Original*%
%TF.FileFunction,Drillmap*%
%TF.FilePolarity,Positive*%
%FSLAX45Y45*%
G04 Gerber Fmt 4.5, Leading zero omitted, Abs format (unit mm)*
G04 Created by KiCad (PCBNEW (7.0.0)) date 2023-08-14 16:39:57*
%MOMM*%
%LPD*%
G01*
G04 APERTURE LIST*
%ADD10C,0.150000*%
%ADD11C,0.200000*%
%ADD12C,0.040000*%
%ADD13C,0.100000*%
G04 APERTURE END LIST*
D10*
X20844000Y-10448200D02*
G75*
G03*
X20544000Y-10148200I-300000J0D01*
G01*
X14344000Y-12848200D02*
G75*
G03*
X14644000Y-13148200I300000J0D01*
G01*
X14644000Y-10148200D02*
G75*
G03*
X14344000Y-10448200I0J-300000D01*
G01*
X14344000Y-12848200D02*
X14344000Y-10448200D01*
X14644000Y-10148200D02*
X20544000Y-10148200D01*
X20844000Y-10448200D02*
X20844000Y-12848200D01*
X20544000Y-13148200D02*
G75*
G03*
X20844000Y-12848200I0J300000D01*
G01*
X20494000Y-13148200D02*
X20544000Y-13148200D01*
X14694000Y-13148200D02*
X20494000Y-13148200D01*
X14694000Y-13148200D02*
X14644000Y-13148200D01*
D11*
D12*
X15175650Y-12745150D02*
X15215650Y-12785150D01*
X15215650Y-12745150D02*
X15175650Y-12785150D01*
X15220100Y-12008550D02*
X15260100Y-12048550D01*
X15260100Y-12008550D02*
X15220100Y-12048550D01*
X15334400Y-12338750D02*
X15374400Y-12378750D01*
X15374400Y-12338750D02*
X15334400Y-12378750D01*
X15372500Y-11087800D02*
X15412500Y-11127800D01*
X15412500Y-11087800D02*
X15372500Y-11127800D01*
X15728100Y-11545000D02*
X15768100Y-11585000D01*
X15768100Y-11545000D02*
X15728100Y-11585000D01*
X15804300Y-12434000D02*
X15844300Y-12474000D01*
X15844300Y-12434000D02*
X15804300Y-12474000D01*
X15963050Y-11392600D02*
X16003050Y-11432600D01*
X16003050Y-11392600D02*
X15963050Y-11432600D01*
X15969400Y-11545000D02*
X16009400Y-11585000D01*
X16009400Y-11545000D02*
X15969400Y-11585000D01*
X15982100Y-11837100D02*
X16022100Y-11877100D01*
X16022100Y-11837100D02*
X15982100Y-11877100D01*
X16223400Y-12249850D02*
X16263400Y-12289850D01*
X16263400Y-12249850D02*
X16223400Y-12289850D01*
X16261500Y-12707050D02*
X16301500Y-12747050D01*
X16301500Y-12707050D02*
X16261500Y-12747050D01*
X16286900Y-12364150D02*
X16326900Y-12404150D01*
X16326900Y-12364150D02*
X16286900Y-12404150D01*
X16553600Y-11748200D02*
X16593600Y-11788200D01*
X16593600Y-11748200D02*
X16553600Y-11788200D01*
X16566300Y-12624500D02*
X16606300Y-12664500D01*
X16606300Y-12624500D02*
X16566300Y-12664500D01*
X16584841Y-10866059D02*
X16624841Y-10906059D01*
X16624841Y-10866059D02*
X16584841Y-10906059D01*
X16584841Y-11545000D02*
X16624841Y-11585000D01*
X16624841Y-11545000D02*
X16584841Y-11585000D01*
X16852559Y-10866059D02*
X16892559Y-10906059D01*
X16892559Y-10866059D02*
X16852559Y-10906059D01*
X17023500Y-11392600D02*
X17063500Y-11432600D01*
X17063500Y-11392600D02*
X17023500Y-11432600D01*
X17125100Y-12249850D02*
X17165100Y-12289850D01*
X17165100Y-12249850D02*
X17125100Y-12289850D01*
X17302900Y-12561000D02*
X17342900Y-12601000D01*
X17342900Y-12561000D02*
X17302900Y-12601000D01*
X17341000Y-11214800D02*
X17381000Y-11254800D01*
X17381000Y-11214800D02*
X17341000Y-11254800D01*
X17353700Y-11710100D02*
X17393700Y-11750100D01*
X17393700Y-11710100D02*
X17353700Y-11750100D01*
X17976000Y-11214800D02*
X18016000Y-11254800D01*
X18016000Y-11214800D02*
X17976000Y-11254800D01*
X17976000Y-12243500D02*
X18016000Y-12283500D01*
X18016000Y-12243500D02*
X17976000Y-12283500D01*
X17988700Y-11710100D02*
X18028700Y-11750100D01*
X18028700Y-11710100D02*
X17988700Y-11750100D01*
X18725300Y-12218100D02*
X18765300Y-12258100D01*
X18765300Y-12218100D02*
X18725300Y-12258100D01*
X18820550Y-12097450D02*
X18860550Y-12137450D01*
X18860550Y-12097450D02*
X18820550Y-12137450D01*
X18833250Y-12218100D02*
X18873250Y-12258100D01*
X18873250Y-12218100D02*
X18833250Y-12258100D01*
X19201550Y-12878500D02*
X19241550Y-12918500D01*
X19241550Y-12878500D02*
X19201550Y-12918500D01*
X19201550Y-13018200D02*
X19241550Y-13058200D01*
X19241550Y-13018200D02*
X19201550Y-13058200D01*
X19341250Y-12878500D02*
X19381250Y-12918500D01*
X19381250Y-12878500D02*
X19341250Y-12918500D01*
X19341250Y-13018200D02*
X19381250Y-13058200D01*
X19381250Y-13018200D02*
X19341250Y-13058200D01*
X19487300Y-12878500D02*
X19527300Y-12918500D01*
X19527300Y-12878500D02*
X19487300Y-12918500D01*
X19487300Y-13018200D02*
X19527300Y-13058200D01*
X19527300Y-13018200D02*
X19487300Y-13058200D01*
X19639700Y-12878500D02*
X19679700Y-12918500D01*
X19679700Y-12878500D02*
X19639700Y-12918500D01*
X19639700Y-13018200D02*
X19679700Y-13058200D01*
X19679700Y-13018200D02*
X19639700Y-13058200D01*
X19919100Y-11329100D02*
X19959100Y-11369100D01*
X19959100Y-11329100D02*
X19919100Y-11369100D01*
X20084200Y-11468800D02*
X20124200Y-11508800D01*
X20124200Y-11468800D02*
X20084200Y-11508800D01*
X20109600Y-12662600D02*
X20149600Y-12702600D01*
X20149600Y-12662600D02*
X20109600Y-12702600D01*
D13*
X15229140Y-10368660D02*
G75*
G03*
X15229140Y-10368660I-50000J0D01*
G01*
X15229140Y-10622660D02*
G75*
G03*
X15229140Y-10622660I-50000J0D01*
G01*
X15483140Y-10368660D02*
G75*
G03*
X15483140Y-10368660I-50000J0D01*
G01*
X15483140Y-10622660D02*
G75*
G03*
X15483140Y-10622660I-50000J0D01*
G01*
X15737140Y-10368660D02*
G75*
G03*
X15737140Y-10368660I-50000J0D01*
G01*
X15737140Y-10622660D02*
G75*
G03*
X15737140Y-10622660I-50000J0D01*
G01*
X15991140Y-10368660D02*
G75*
G03*
X15991140Y-10368660I-50000J0D01*
G01*
X15991140Y-10622660D02*
G75*
G03*
X15991140Y-10622660I-50000J0D01*
G01*
X16052100Y-12466700D02*
G75*
G03*
X16052100Y-12466700I-50000J0D01*
G01*
X16245140Y-10368660D02*
G75*
G03*
X16245140Y-10368660I-50000J0D01*
G01*
X16245140Y-10622660D02*
G75*
G03*
X16245140Y-10622660I-50000J0D01*
G01*
X16499140Y-10368660D02*
G75*
G03*
X16499140Y-10368660I-50000J0D01*
G01*
X16499140Y-10622660D02*
G75*
G03*
X16499140Y-10622660I-50000J0D01*
G01*
X16753140Y-10368660D02*
G75*
G03*
X16753140Y-10368660I-50000J0D01*
G01*
X16753140Y-10622660D02*
G75*
G03*
X16753140Y-10622660I-50000J0D01*
G01*
X17007140Y-10368660D02*
G75*
G03*
X17007140Y-10368660I-50000J0D01*
G01*
X17007140Y-10622660D02*
G75*
G03*
X17007140Y-10622660I-50000J0D01*
G01*
X17261140Y-10368660D02*
G75*
G03*
X17261140Y-10368660I-50000J0D01*
G01*
X17261140Y-10622660D02*
G75*
G03*
X17261140Y-10622660I-50000J0D01*
G01*
X17515140Y-10368660D02*
G75*
G03*
X17515140Y-10368660I-50000J0D01*
G01*
X17515140Y-10622660D02*
G75*
G03*
X17515140Y-10622660I-50000J0D01*
G01*
X17769140Y-10368660D02*
G75*
G03*
X17769140Y-10368660I-50000J0D01*
G01*
X17769140Y-10622660D02*
G75*
G03*
X17769140Y-10622660I-50000J0D01*
G01*
X18023140Y-10368660D02*
G75*
G03*
X18023140Y-10368660I-50000J0D01*
G01*
X18023140Y-10622660D02*
G75*
G03*
X18023140Y-10622660I-50000J0D01*
G01*
X18277140Y-10368660D02*
G75*
G03*
X18277140Y-10368660I-50000J0D01*
G01*
X18277140Y-10622660D02*
G75*
G03*
X18277140Y-10622660I-50000J0D01*
G01*
X18531140Y-10368660D02*
G75*
G03*
X18531140Y-10368660I-50000J0D01*
G01*
X18531140Y-10622660D02*
G75*
G03*
X18531140Y-10622660I-50000J0D01*
G01*
X18785140Y-10368660D02*
G75*
G03*
X18785140Y-10368660I-50000J0D01*
G01*
X18785140Y-10622660D02*
G75*
G03*
X18785140Y-10622660I-50000J0D01*
G01*
X19039140Y-10368660D02*
G75*
G03*
X19039140Y-10368660I-50000J0D01*
G01*
X19039140Y-10622660D02*
G75*
G03*
X19039140Y-10622660I-50000J0D01*
G01*
X19293140Y-10368660D02*
G75*
G03*
X19293140Y-10368660I-50000J0D01*
G01*
X19293140Y-10622660D02*
G75*
G03*
X19293140Y-10622660I-50000J0D01*
G01*
X19547140Y-10368660D02*
G75*
G03*
X19547140Y-10368660I-50000J0D01*
G01*
X19547140Y-10622660D02*
G75*
G03*
X19547140Y-10622660I-50000J0D01*
G01*
X19798600Y-10879200D02*
G75*
G03*
X19798600Y-10879200I-50000J0D01*
G01*
X19798600Y-11133200D02*
G75*
G03*
X19798600Y-11133200I-50000J0D01*
G01*
X19801140Y-10368660D02*
G75*
G03*
X19801140Y-10368660I-50000J0D01*
G01*
X19801140Y-10622660D02*
G75*
G03*
X19801140Y-10622660I-50000J0D01*
G01*
X20052600Y-10879200D02*
G75*
G03*
X20052600Y-10879200I-50000J0D01*
G01*
X20052600Y-11133200D02*
G75*
G03*
X20052600Y-11133200I-50000J0D01*
G01*
X20055140Y-10368660D02*
G75*
G03*
X20055140Y-10368660I-50000J0D01*
G01*
X20055140Y-10622660D02*
G75*
G03*
X20055140Y-10622660I-50000J0D01*
G01*
D11*
X14584119Y-13449176D02*
X14584119Y-13249176D01*
X14584119Y-13249176D02*
X14631738Y-13249176D01*
X14631738Y-13249176D02*
X14660309Y-13258700D01*
X14660309Y-13258700D02*
X14679357Y-13277748D01*
X14679357Y-13277748D02*
X14688881Y-13296795D01*
X14688881Y-13296795D02*
X14698405Y-13334890D01*
X14698405Y-13334890D02*
X14698405Y-13363462D01*
X14698405Y-13363462D02*
X14688881Y-13401557D01*
X14688881Y-13401557D02*
X14679357Y-13420605D01*
X14679357Y-13420605D02*
X14660309Y-13439652D01*
X14660309Y-13439652D02*
X14631738Y-13449176D01*
X14631738Y-13449176D02*
X14584119Y-13449176D01*
X14784119Y-13449176D02*
X14784119Y-13315843D01*
X14784119Y-13353938D02*
X14793643Y-13334890D01*
X14793643Y-13334890D02*
X14803167Y-13325367D01*
X14803167Y-13325367D02*
X14822214Y-13315843D01*
X14822214Y-13315843D02*
X14841262Y-13315843D01*
X14907928Y-13449176D02*
X14907928Y-13315843D01*
X14907928Y-13249176D02*
X14898405Y-13258700D01*
X14898405Y-13258700D02*
X14907928Y-13268224D01*
X14907928Y-13268224D02*
X14917452Y-13258700D01*
X14917452Y-13258700D02*
X14907928Y-13249176D01*
X14907928Y-13249176D02*
X14907928Y-13268224D01*
X15031738Y-13449176D02*
X15012690Y-13439652D01*
X15012690Y-13439652D02*
X15003167Y-13420605D01*
X15003167Y-13420605D02*
X15003167Y-13249176D01*
X15136500Y-13449176D02*
X15117452Y-13439652D01*
X15117452Y-13439652D02*
X15107928Y-13420605D01*
X15107928Y-13420605D02*
X15107928Y-13249176D01*
X15332690Y-13449176D02*
X15332690Y-13249176D01*
X15332690Y-13249176D02*
X15399357Y-13392033D01*
X15399357Y-13392033D02*
X15466024Y-13249176D01*
X15466024Y-13249176D02*
X15466024Y-13449176D01*
X15646976Y-13449176D02*
X15646976Y-13344414D01*
X15646976Y-13344414D02*
X15637452Y-13325367D01*
X15637452Y-13325367D02*
X15618405Y-13315843D01*
X15618405Y-13315843D02*
X15580309Y-13315843D01*
X15580309Y-13315843D02*
X15561262Y-13325367D01*
X15646976Y-13439652D02*
X15627928Y-13449176D01*
X15627928Y-13449176D02*
X15580309Y-13449176D01*
X15580309Y-13449176D02*
X15561262Y-13439652D01*
X15561262Y-13439652D02*
X15551738Y-13420605D01*
X15551738Y-13420605D02*
X15551738Y-13401557D01*
X15551738Y-13401557D02*
X15561262Y-13382509D01*
X15561262Y-13382509D02*
X15580309Y-13372986D01*
X15580309Y-13372986D02*
X15627928Y-13372986D01*
X15627928Y-13372986D02*
X15646976Y-13363462D01*
X15742214Y-13315843D02*
X15742214Y-13515843D01*
X15742214Y-13325367D02*
X15761262Y-13315843D01*
X15761262Y-13315843D02*
X15799357Y-13315843D01*
X15799357Y-13315843D02*
X15818405Y-13325367D01*
X15818405Y-13325367D02*
X15827928Y-13334890D01*
X15827928Y-13334890D02*
X15837452Y-13353938D01*
X15837452Y-13353938D02*
X15837452Y-13411081D01*
X15837452Y-13411081D02*
X15827928Y-13430128D01*
X15827928Y-13430128D02*
X15818405Y-13439652D01*
X15818405Y-13439652D02*
X15799357Y-13449176D01*
X15799357Y-13449176D02*
X15761262Y-13449176D01*
X15761262Y-13449176D02*
X15742214Y-13439652D01*
X15923167Y-13430128D02*
X15932690Y-13439652D01*
X15932690Y-13439652D02*
X15923167Y-13449176D01*
X15923167Y-13449176D02*
X15913643Y-13439652D01*
X15913643Y-13439652D02*
X15923167Y-13430128D01*
X15923167Y-13430128D02*
X15923167Y-13449176D01*
X15923167Y-13325367D02*
X15932690Y-13334890D01*
X15932690Y-13334890D02*
X15923167Y-13344414D01*
X15923167Y-13344414D02*
X15913643Y-13334890D01*
X15913643Y-13334890D02*
X15923167Y-13325367D01*
X15923167Y-13325367D02*
X15923167Y-13344414D01*
D12*
X14296500Y-13775700D02*
X14336500Y-13815700D01*
X14336500Y-13775700D02*
X14296500Y-13815700D01*
D11*
X14622214Y-13669176D02*
X14641262Y-13669176D01*
X14641262Y-13669176D02*
X14660309Y-13678700D01*
X14660309Y-13678700D02*
X14669833Y-13688224D01*
X14669833Y-13688224D02*
X14679357Y-13707271D01*
X14679357Y-13707271D02*
X14688881Y-13745367D01*
X14688881Y-13745367D02*
X14688881Y-13792986D01*
X14688881Y-13792986D02*
X14679357Y-13831081D01*
X14679357Y-13831081D02*
X14669833Y-13850128D01*
X14669833Y-13850128D02*
X14660309Y-13859652D01*
X14660309Y-13859652D02*
X14641262Y-13869176D01*
X14641262Y-13869176D02*
X14622214Y-13869176D01*
X14622214Y-13869176D02*
X14603167Y-13859652D01*
X14603167Y-13859652D02*
X14593643Y-13850128D01*
X14593643Y-13850128D02*
X14584119Y-13831081D01*
X14584119Y-13831081D02*
X14574595Y-13792986D01*
X14574595Y-13792986D02*
X14574595Y-13745367D01*
X14574595Y-13745367D02*
X14584119Y-13707271D01*
X14584119Y-13707271D02*
X14593643Y-13688224D01*
X14593643Y-13688224D02*
X14603167Y-13678700D01*
X14603167Y-13678700D02*
X14622214Y-13669176D01*
X14774595Y-13850128D02*
X14784119Y-13859652D01*
X14784119Y-13859652D02*
X14774595Y-13869176D01*
X14774595Y-13869176D02*
X14765071Y-13859652D01*
X14765071Y-13859652D02*
X14774595Y-13850128D01*
X14774595Y-13850128D02*
X14774595Y-13869176D01*
X14955548Y-13735843D02*
X14955548Y-13869176D01*
X14907928Y-13659652D02*
X14860309Y-13802509D01*
X14860309Y-13802509D02*
X14984119Y-13802509D01*
X15098405Y-13669176D02*
X15117452Y-13669176D01*
X15117452Y-13669176D02*
X15136500Y-13678700D01*
X15136500Y-13678700D02*
X15146024Y-13688224D01*
X15146024Y-13688224D02*
X15155548Y-13707271D01*
X15155548Y-13707271D02*
X15165071Y-13745367D01*
X15165071Y-13745367D02*
X15165071Y-13792986D01*
X15165071Y-13792986D02*
X15155548Y-13831081D01*
X15155548Y-13831081D02*
X15146024Y-13850128D01*
X15146024Y-13850128D02*
X15136500Y-13859652D01*
X15136500Y-13859652D02*
X15117452Y-13869176D01*
X15117452Y-13869176D02*
X15098405Y-13869176D01*
X15098405Y-13869176D02*
X15079357Y-13859652D01*
X15079357Y-13859652D02*
X15069833Y-13850128D01*
X15069833Y-13850128D02*
X15060309Y-13831081D01*
X15060309Y-13831081D02*
X15050786Y-13792986D01*
X15050786Y-13792986D02*
X15050786Y-13745367D01*
X15050786Y-13745367D02*
X15060309Y-13707271D01*
X15060309Y-13707271D02*
X15069833Y-13688224D01*
X15069833Y-13688224D02*
X15079357Y-13678700D01*
X15079357Y-13678700D02*
X15098405Y-13669176D01*
X15288881Y-13669176D02*
X15307929Y-13669176D01*
X15307929Y-13669176D02*
X15326976Y-13678700D01*
X15326976Y-13678700D02*
X15336500Y-13688224D01*
X15336500Y-13688224D02*
X15346024Y-13707271D01*
X15346024Y-13707271D02*
X15355548Y-13745367D01*
X15355548Y-13745367D02*
X15355548Y-13792986D01*
X15355548Y-13792986D02*
X15346024Y-13831081D01*
X15346024Y-13831081D02*
X15336500Y-13850128D01*
X15336500Y-13850128D02*
X15326976Y-13859652D01*
X15326976Y-13859652D02*
X15307929Y-13869176D01*
X15307929Y-13869176D02*
X15288881Y-13869176D01*
X15288881Y-13869176D02*
X15269833Y-13859652D01*
X15269833Y-13859652D02*
X15260309Y-13850128D01*
X15260309Y-13850128D02*
X15250786Y-13831081D01*
X15250786Y-13831081D02*
X15241262Y-13792986D01*
X15241262Y-13792986D02*
X15241262Y-13745367D01*
X15241262Y-13745367D02*
X15250786Y-13707271D01*
X15250786Y-13707271D02*
X15260309Y-13688224D01*
X15260309Y-13688224D02*
X15269833Y-13678700D01*
X15269833Y-13678700D02*
X15288881Y-13669176D01*
X15441262Y-13869176D02*
X15441262Y-13735843D01*
X15441262Y-13754890D02*
X15450786Y-13745367D01*
X15450786Y-13745367D02*
X15469833Y-13735843D01*
X15469833Y-13735843D02*
X15498405Y-13735843D01*
X15498405Y-13735843D02*
X15517452Y-13745367D01*
X15517452Y-13745367D02*
X15526976Y-13764414D01*
X15526976Y-13764414D02*
X15526976Y-13869176D01*
X15526976Y-13764414D02*
X15536500Y-13745367D01*
X15536500Y-13745367D02*
X15555548Y-13735843D01*
X15555548Y-13735843D02*
X15584119Y-13735843D01*
X15584119Y-13735843D02*
X15603167Y-13745367D01*
X15603167Y-13745367D02*
X15612690Y-13764414D01*
X15612690Y-13764414D02*
X15612690Y-13869176D01*
X15707929Y-13869176D02*
X15707929Y-13735843D01*
X15707929Y-13754890D02*
X15717452Y-13745367D01*
X15717452Y-13745367D02*
X15736500Y-13735843D01*
X15736500Y-13735843D02*
X15765071Y-13735843D01*
X15765071Y-13735843D02*
X15784119Y-13745367D01*
X15784119Y-13745367D02*
X15793643Y-13764414D01*
X15793643Y-13764414D02*
X15793643Y-13869176D01*
X15793643Y-13764414D02*
X15803167Y-13745367D01*
X15803167Y-13745367D02*
X15822214Y-13735843D01*
X15822214Y-13735843D02*
X15850786Y-13735843D01*
X15850786Y-13735843D02*
X15869833Y-13745367D01*
X15869833Y-13745367D02*
X15879357Y-13764414D01*
X15879357Y-13764414D02*
X15879357Y-13869176D01*
X16237452Y-13659652D02*
X16066024Y-13916795D01*
X16462214Y-13669176D02*
X16481262Y-13669176D01*
X16481262Y-13669176D02*
X16500310Y-13678700D01*
X16500310Y-13678700D02*
X16509833Y-13688224D01*
X16509833Y-13688224D02*
X16519357Y-13707271D01*
X16519357Y-13707271D02*
X16528881Y-13745367D01*
X16528881Y-13745367D02*
X16528881Y-13792986D01*
X16528881Y-13792986D02*
X16519357Y-13831081D01*
X16519357Y-13831081D02*
X16509833Y-13850128D01*
X16509833Y-13850128D02*
X16500310Y-13859652D01*
X16500310Y-13859652D02*
X16481262Y-13869176D01*
X16481262Y-13869176D02*
X16462214Y-13869176D01*
X16462214Y-13869176D02*
X16443167Y-13859652D01*
X16443167Y-13859652D02*
X16433643Y-13850128D01*
X16433643Y-13850128D02*
X16424119Y-13831081D01*
X16424119Y-13831081D02*
X16414595Y-13792986D01*
X16414595Y-13792986D02*
X16414595Y-13745367D01*
X16414595Y-13745367D02*
X16424119Y-13707271D01*
X16424119Y-13707271D02*
X16433643Y-13688224D01*
X16433643Y-13688224D02*
X16443167Y-13678700D01*
X16443167Y-13678700D02*
X16462214Y-13669176D01*
X16614595Y-13850128D02*
X16624119Y-13859652D01*
X16624119Y-13859652D02*
X16614595Y-13869176D01*
X16614595Y-13869176D02*
X16605071Y-13859652D01*
X16605071Y-13859652D02*
X16614595Y-13850128D01*
X16614595Y-13850128D02*
X16614595Y-13869176D01*
X16747929Y-13669176D02*
X16766976Y-13669176D01*
X16766976Y-13669176D02*
X16786024Y-13678700D01*
X16786024Y-13678700D02*
X16795548Y-13688224D01*
X16795548Y-13688224D02*
X16805072Y-13707271D01*
X16805072Y-13707271D02*
X16814595Y-13745367D01*
X16814595Y-13745367D02*
X16814595Y-13792986D01*
X16814595Y-13792986D02*
X16805072Y-13831081D01*
X16805072Y-13831081D02*
X16795548Y-13850128D01*
X16795548Y-13850128D02*
X16786024Y-13859652D01*
X16786024Y-13859652D02*
X16766976Y-13869176D01*
X16766976Y-13869176D02*
X16747929Y-13869176D01*
X16747929Y-13869176D02*
X16728881Y-13859652D01*
X16728881Y-13859652D02*
X16719357Y-13850128D01*
X16719357Y-13850128D02*
X16709833Y-13831081D01*
X16709833Y-13831081D02*
X16700310Y-13792986D01*
X16700310Y-13792986D02*
X16700310Y-13745367D01*
X16700310Y-13745367D02*
X16709833Y-13707271D01*
X16709833Y-13707271D02*
X16719357Y-13688224D01*
X16719357Y-13688224D02*
X16728881Y-13678700D01*
X16728881Y-13678700D02*
X16747929Y-13669176D01*
X17005072Y-13869176D02*
X16890786Y-13869176D01*
X16947929Y-13869176D02*
X16947929Y-13669176D01*
X16947929Y-13669176D02*
X16928881Y-13697748D01*
X16928881Y-13697748D02*
X16909833Y-13716795D01*
X16909833Y-13716795D02*
X16890786Y-13726319D01*
X17186024Y-13669176D02*
X17090786Y-13669176D01*
X17090786Y-13669176D02*
X17081262Y-13764414D01*
X17081262Y-13764414D02*
X17090786Y-13754890D01*
X17090786Y-13754890D02*
X17109833Y-13745367D01*
X17109833Y-13745367D02*
X17157453Y-13745367D01*
X17157453Y-13745367D02*
X17176500Y-13754890D01*
X17176500Y-13754890D02*
X17186024Y-13764414D01*
X17186024Y-13764414D02*
X17195548Y-13783462D01*
X17195548Y-13783462D02*
X17195548Y-13831081D01*
X17195548Y-13831081D02*
X17186024Y-13850128D01*
X17186024Y-13850128D02*
X17176500Y-13859652D01*
X17176500Y-13859652D02*
X17157453Y-13869176D01*
X17157453Y-13869176D02*
X17109833Y-13869176D01*
X17109833Y-13869176D02*
X17090786Y-13859652D01*
X17090786Y-13859652D02*
X17081262Y-13850128D01*
X17262214Y-13669176D02*
X17395548Y-13669176D01*
X17395548Y-13669176D02*
X17309833Y-13869176D01*
X17462214Y-13669176D02*
X17462214Y-13707271D01*
X17538405Y-13669176D02*
X17538405Y-13707271D01*
X17801262Y-13945367D02*
X17791738Y-13935843D01*
X17791738Y-13935843D02*
X17772691Y-13907271D01*
X17772691Y-13907271D02*
X17763167Y-13888224D01*
X17763167Y-13888224D02*
X17753643Y-13859652D01*
X17753643Y-13859652D02*
X17744119Y-13812033D01*
X17744119Y-13812033D02*
X17744119Y-13773938D01*
X17744119Y-13773938D02*
X17753643Y-13726319D01*
X17753643Y-13726319D02*
X17763167Y-13697748D01*
X17763167Y-13697748D02*
X17772691Y-13678700D01*
X17772691Y-13678700D02*
X17791738Y-13650128D01*
X17791738Y-13650128D02*
X17801262Y-13640605D01*
X17858405Y-13669176D02*
X17982214Y-13669176D01*
X17982214Y-13669176D02*
X17915548Y-13745367D01*
X17915548Y-13745367D02*
X17944119Y-13745367D01*
X17944119Y-13745367D02*
X17963167Y-13754890D01*
X17963167Y-13754890D02*
X17972691Y-13764414D01*
X17972691Y-13764414D02*
X17982214Y-13783462D01*
X17982214Y-13783462D02*
X17982214Y-13831081D01*
X17982214Y-13831081D02*
X17972691Y-13850128D01*
X17972691Y-13850128D02*
X17963167Y-13859652D01*
X17963167Y-13859652D02*
X17944119Y-13869176D01*
X17944119Y-13869176D02*
X17886976Y-13869176D01*
X17886976Y-13869176D02*
X17867929Y-13859652D01*
X17867929Y-13859652D02*
X17858405Y-13850128D01*
X18077453Y-13869176D02*
X18115548Y-13869176D01*
X18115548Y-13869176D02*
X18134595Y-13859652D01*
X18134595Y-13859652D02*
X18144119Y-13850128D01*
X18144119Y-13850128D02*
X18163167Y-13821557D01*
X18163167Y-13821557D02*
X18172691Y-13783462D01*
X18172691Y-13783462D02*
X18172691Y-13707271D01*
X18172691Y-13707271D02*
X18163167Y-13688224D01*
X18163167Y-13688224D02*
X18153643Y-13678700D01*
X18153643Y-13678700D02*
X18134595Y-13669176D01*
X18134595Y-13669176D02*
X18096500Y-13669176D01*
X18096500Y-13669176D02*
X18077453Y-13678700D01*
X18077453Y-13678700D02*
X18067929Y-13688224D01*
X18067929Y-13688224D02*
X18058405Y-13707271D01*
X18058405Y-13707271D02*
X18058405Y-13754890D01*
X18058405Y-13754890D02*
X18067929Y-13773938D01*
X18067929Y-13773938D02*
X18077453Y-13783462D01*
X18077453Y-13783462D02*
X18096500Y-13792986D01*
X18096500Y-13792986D02*
X18134595Y-13792986D01*
X18134595Y-13792986D02*
X18153643Y-13783462D01*
X18153643Y-13783462D02*
X18163167Y-13773938D01*
X18163167Y-13773938D02*
X18172691Y-13754890D01*
X18378405Y-13869176D02*
X18378405Y-13669176D01*
X18464119Y-13869176D02*
X18464119Y-13764414D01*
X18464119Y-13764414D02*
X18454595Y-13745367D01*
X18454595Y-13745367D02*
X18435548Y-13735843D01*
X18435548Y-13735843D02*
X18406976Y-13735843D01*
X18406976Y-13735843D02*
X18387929Y-13745367D01*
X18387929Y-13745367D02*
X18378405Y-13754890D01*
X18587929Y-13869176D02*
X18568881Y-13859652D01*
X18568881Y-13859652D02*
X18559357Y-13850128D01*
X18559357Y-13850128D02*
X18549834Y-13831081D01*
X18549834Y-13831081D02*
X18549834Y-13773938D01*
X18549834Y-13773938D02*
X18559357Y-13754890D01*
X18559357Y-13754890D02*
X18568881Y-13745367D01*
X18568881Y-13745367D02*
X18587929Y-13735843D01*
X18587929Y-13735843D02*
X18616500Y-13735843D01*
X18616500Y-13735843D02*
X18635548Y-13745367D01*
X18635548Y-13745367D02*
X18645072Y-13754890D01*
X18645072Y-13754890D02*
X18654595Y-13773938D01*
X18654595Y-13773938D02*
X18654595Y-13831081D01*
X18654595Y-13831081D02*
X18645072Y-13850128D01*
X18645072Y-13850128D02*
X18635548Y-13859652D01*
X18635548Y-13859652D02*
X18616500Y-13869176D01*
X18616500Y-13869176D02*
X18587929Y-13869176D01*
X18768881Y-13869176D02*
X18749834Y-13859652D01*
X18749834Y-13859652D02*
X18740310Y-13840605D01*
X18740310Y-13840605D02*
X18740310Y-13669176D01*
X18921262Y-13859652D02*
X18902215Y-13869176D01*
X18902215Y-13869176D02*
X18864119Y-13869176D01*
X18864119Y-13869176D02*
X18845072Y-13859652D01*
X18845072Y-13859652D02*
X18835548Y-13840605D01*
X18835548Y-13840605D02*
X18835548Y-13764414D01*
X18835548Y-13764414D02*
X18845072Y-13745367D01*
X18845072Y-13745367D02*
X18864119Y-13735843D01*
X18864119Y-13735843D02*
X18902215Y-13735843D01*
X18902215Y-13735843D02*
X18921262Y-13745367D01*
X18921262Y-13745367D02*
X18930786Y-13764414D01*
X18930786Y-13764414D02*
X18930786Y-13783462D01*
X18930786Y-13783462D02*
X18835548Y-13802509D01*
X19006976Y-13859652D02*
X19026024Y-13869176D01*
X19026024Y-13869176D02*
X19064119Y-13869176D01*
X19064119Y-13869176D02*
X19083167Y-13859652D01*
X19083167Y-13859652D02*
X19092691Y-13840605D01*
X19092691Y-13840605D02*
X19092691Y-13831081D01*
X19092691Y-13831081D02*
X19083167Y-13812033D01*
X19083167Y-13812033D02*
X19064119Y-13802509D01*
X19064119Y-13802509D02*
X19035548Y-13802509D01*
X19035548Y-13802509D02*
X19016500Y-13792986D01*
X19016500Y-13792986D02*
X19006976Y-13773938D01*
X19006976Y-13773938D02*
X19006976Y-13764414D01*
X19006976Y-13764414D02*
X19016500Y-13745367D01*
X19016500Y-13745367D02*
X19035548Y-13735843D01*
X19035548Y-13735843D02*
X19064119Y-13735843D01*
X19064119Y-13735843D02*
X19083167Y-13745367D01*
X19159357Y-13945367D02*
X19168881Y-13935843D01*
X19168881Y-13935843D02*
X19187929Y-13907271D01*
X19187929Y-13907271D02*
X19197453Y-13888224D01*
X19197453Y-13888224D02*
X19206976Y-13859652D01*
X19206976Y-13859652D02*
X19216500Y-13812033D01*
X19216500Y-13812033D02*
X19216500Y-13773938D01*
X19216500Y-13773938D02*
X19206976Y-13726319D01*
X19206976Y-13726319D02*
X19197453Y-13697748D01*
X19197453Y-13697748D02*
X19187929Y-13678700D01*
X19187929Y-13678700D02*
X19168881Y-13650128D01*
X19168881Y-13650128D02*
X19159357Y-13640605D01*
D13*
X14336500Y-14059700D02*
G75*
G03*
X14336500Y-14059700I-50000J0D01*
G01*
D11*
X14688881Y-14133176D02*
X14574595Y-14133176D01*
X14631738Y-14133176D02*
X14631738Y-13933176D01*
X14631738Y-13933176D02*
X14612690Y-13961748D01*
X14612690Y-13961748D02*
X14593643Y-13980795D01*
X14593643Y-13980795D02*
X14574595Y-13990319D01*
X14774595Y-14114128D02*
X14784119Y-14123652D01*
X14784119Y-14123652D02*
X14774595Y-14133176D01*
X14774595Y-14133176D02*
X14765071Y-14123652D01*
X14765071Y-14123652D02*
X14774595Y-14114128D01*
X14774595Y-14114128D02*
X14774595Y-14133176D01*
X14907928Y-13933176D02*
X14926976Y-13933176D01*
X14926976Y-13933176D02*
X14946024Y-13942700D01*
X14946024Y-13942700D02*
X14955548Y-13952224D01*
X14955548Y-13952224D02*
X14965071Y-13971271D01*
X14965071Y-13971271D02*
X14974595Y-14009367D01*
X14974595Y-14009367D02*
X14974595Y-14056986D01*
X14974595Y-14056986D02*
X14965071Y-14095081D01*
X14965071Y-14095081D02*
X14955548Y-14114128D01*
X14955548Y-14114128D02*
X14946024Y-14123652D01*
X14946024Y-14123652D02*
X14926976Y-14133176D01*
X14926976Y-14133176D02*
X14907928Y-14133176D01*
X14907928Y-14133176D02*
X14888881Y-14123652D01*
X14888881Y-14123652D02*
X14879357Y-14114128D01*
X14879357Y-14114128D02*
X14869833Y-14095081D01*
X14869833Y-14095081D02*
X14860309Y-14056986D01*
X14860309Y-14056986D02*
X14860309Y-14009367D01*
X14860309Y-14009367D02*
X14869833Y-13971271D01*
X14869833Y-13971271D02*
X14879357Y-13952224D01*
X14879357Y-13952224D02*
X14888881Y-13942700D01*
X14888881Y-13942700D02*
X14907928Y-13933176D01*
X15098405Y-13933176D02*
X15117452Y-13933176D01*
X15117452Y-13933176D02*
X15136500Y-13942700D01*
X15136500Y-13942700D02*
X15146024Y-13952224D01*
X15146024Y-13952224D02*
X15155548Y-13971271D01*
X15155548Y-13971271D02*
X15165071Y-14009367D01*
X15165071Y-14009367D02*
X15165071Y-14056986D01*
X15165071Y-14056986D02*
X15155548Y-14095081D01*
X15155548Y-14095081D02*
X15146024Y-14114128D01*
X15146024Y-14114128D02*
X15136500Y-14123652D01*
X15136500Y-14123652D02*
X15117452Y-14133176D01*
X15117452Y-14133176D02*
X15098405Y-14133176D01*
X15098405Y-14133176D02*
X15079357Y-14123652D01*
X15079357Y-14123652D02*
X15069833Y-14114128D01*
X15069833Y-14114128D02*
X15060309Y-14095081D01*
X15060309Y-14095081D02*
X15050786Y-14056986D01*
X15050786Y-14056986D02*
X15050786Y-14009367D01*
X15050786Y-14009367D02*
X15060309Y-13971271D01*
X15060309Y-13971271D02*
X15069833Y-13952224D01*
X15069833Y-13952224D02*
X15079357Y-13942700D01*
X15079357Y-13942700D02*
X15098405Y-13933176D01*
X15288881Y-13933176D02*
X15307929Y-13933176D01*
X15307929Y-13933176D02*
X15326976Y-13942700D01*
X15326976Y-13942700D02*
X15336500Y-13952224D01*
X15336500Y-13952224D02*
X15346024Y-13971271D01*
X15346024Y-13971271D02*
X15355548Y-14009367D01*
X15355548Y-14009367D02*
X15355548Y-14056986D01*
X15355548Y-14056986D02*
X15346024Y-14095081D01*
X15346024Y-14095081D02*
X15336500Y-14114128D01*
X15336500Y-14114128D02*
X15326976Y-14123652D01*
X15326976Y-14123652D02*
X15307929Y-14133176D01*
X15307929Y-14133176D02*
X15288881Y-14133176D01*
X15288881Y-14133176D02*
X15269833Y-14123652D01*
X15269833Y-14123652D02*
X15260309Y-14114128D01*
X15260309Y-14114128D02*
X15250786Y-14095081D01*
X15250786Y-14095081D02*
X15241262Y-14056986D01*
X15241262Y-14056986D02*
X15241262Y-14009367D01*
X15241262Y-14009367D02*
X15250786Y-13971271D01*
X15250786Y-13971271D02*
X15260309Y-13952224D01*
X15260309Y-13952224D02*
X15269833Y-13942700D01*
X15269833Y-13942700D02*
X15288881Y-13933176D01*
X15441262Y-14133176D02*
X15441262Y-13999843D01*
X15441262Y-14018890D02*
X15450786Y-14009367D01*
X15450786Y-14009367D02*
X15469833Y-13999843D01*
X15469833Y-13999843D02*
X15498405Y-13999843D01*
X15498405Y-13999843D02*
X15517452Y-14009367D01*
X15517452Y-14009367D02*
X15526976Y-14028414D01*
X15526976Y-14028414D02*
X15526976Y-14133176D01*
X15526976Y-14028414D02*
X15536500Y-14009367D01*
X15536500Y-14009367D02*
X15555548Y-13999843D01*
X15555548Y-13999843D02*
X15584119Y-13999843D01*
X15584119Y-13999843D02*
X15603167Y-14009367D01*
X15603167Y-14009367D02*
X15612690Y-14028414D01*
X15612690Y-14028414D02*
X15612690Y-14133176D01*
X15707929Y-14133176D02*
X15707929Y-13999843D01*
X15707929Y-14018890D02*
X15717452Y-14009367D01*
X15717452Y-14009367D02*
X15736500Y-13999843D01*
X15736500Y-13999843D02*
X15765071Y-13999843D01*
X15765071Y-13999843D02*
X15784119Y-14009367D01*
X15784119Y-14009367D02*
X15793643Y-14028414D01*
X15793643Y-14028414D02*
X15793643Y-14133176D01*
X15793643Y-14028414D02*
X15803167Y-14009367D01*
X15803167Y-14009367D02*
X15822214Y-13999843D01*
X15822214Y-13999843D02*
X15850786Y-13999843D01*
X15850786Y-13999843D02*
X15869833Y-14009367D01*
X15869833Y-14009367D02*
X15879357Y-14028414D01*
X15879357Y-14028414D02*
X15879357Y-14133176D01*
X16237452Y-13923652D02*
X16066024Y-14180795D01*
X16462214Y-13933176D02*
X16481262Y-13933176D01*
X16481262Y-13933176D02*
X16500310Y-13942700D01*
X16500310Y-13942700D02*
X16509833Y-13952224D01*
X16509833Y-13952224D02*
X16519357Y-13971271D01*
X16519357Y-13971271D02*
X16528881Y-14009367D01*
X16528881Y-14009367D02*
X16528881Y-14056986D01*
X16528881Y-14056986D02*
X16519357Y-14095081D01*
X16519357Y-14095081D02*
X16509833Y-14114128D01*
X16509833Y-14114128D02*
X16500310Y-14123652D01*
X16500310Y-14123652D02*
X16481262Y-14133176D01*
X16481262Y-14133176D02*
X16462214Y-14133176D01*
X16462214Y-14133176D02*
X16443167Y-14123652D01*
X16443167Y-14123652D02*
X16433643Y-14114128D01*
X16433643Y-14114128D02*
X16424119Y-14095081D01*
X16424119Y-14095081D02*
X16414595Y-14056986D01*
X16414595Y-14056986D02*
X16414595Y-14009367D01*
X16414595Y-14009367D02*
X16424119Y-13971271D01*
X16424119Y-13971271D02*
X16433643Y-13952224D01*
X16433643Y-13952224D02*
X16443167Y-13942700D01*
X16443167Y-13942700D02*
X16462214Y-13933176D01*
X16614595Y-14114128D02*
X16624119Y-14123652D01*
X16624119Y-14123652D02*
X16614595Y-14133176D01*
X16614595Y-14133176D02*
X16605071Y-14123652D01*
X16605071Y-14123652D02*
X16614595Y-14114128D01*
X16614595Y-14114128D02*
X16614595Y-14133176D01*
X16747929Y-13933176D02*
X16766976Y-13933176D01*
X16766976Y-13933176D02*
X16786024Y-13942700D01*
X16786024Y-13942700D02*
X16795548Y-13952224D01*
X16795548Y-13952224D02*
X16805072Y-13971271D01*
X16805072Y-13971271D02*
X16814595Y-14009367D01*
X16814595Y-14009367D02*
X16814595Y-14056986D01*
X16814595Y-14056986D02*
X16805072Y-14095081D01*
X16805072Y-14095081D02*
X16795548Y-14114128D01*
X16795548Y-14114128D02*
X16786024Y-14123652D01*
X16786024Y-14123652D02*
X16766976Y-14133176D01*
X16766976Y-14133176D02*
X16747929Y-14133176D01*
X16747929Y-14133176D02*
X16728881Y-14123652D01*
X16728881Y-14123652D02*
X16719357Y-14114128D01*
X16719357Y-14114128D02*
X16709833Y-14095081D01*
X16709833Y-14095081D02*
X16700310Y-14056986D01*
X16700310Y-14056986D02*
X16700310Y-14009367D01*
X16700310Y-14009367D02*
X16709833Y-13971271D01*
X16709833Y-13971271D02*
X16719357Y-13952224D01*
X16719357Y-13952224D02*
X16728881Y-13942700D01*
X16728881Y-13942700D02*
X16747929Y-13933176D01*
X16881262Y-13933176D02*
X17005072Y-13933176D01*
X17005072Y-13933176D02*
X16938405Y-14009367D01*
X16938405Y-14009367D02*
X16966976Y-14009367D01*
X16966976Y-14009367D02*
X16986024Y-14018890D01*
X16986024Y-14018890D02*
X16995548Y-14028414D01*
X16995548Y-14028414D02*
X17005072Y-14047462D01*
X17005072Y-14047462D02*
X17005072Y-14095081D01*
X17005072Y-14095081D02*
X16995548Y-14114128D01*
X16995548Y-14114128D02*
X16986024Y-14123652D01*
X16986024Y-14123652D02*
X16966976Y-14133176D01*
X16966976Y-14133176D02*
X16909833Y-14133176D01*
X16909833Y-14133176D02*
X16890786Y-14123652D01*
X16890786Y-14123652D02*
X16881262Y-14114128D01*
X17100310Y-14133176D02*
X17138405Y-14133176D01*
X17138405Y-14133176D02*
X17157453Y-14123652D01*
X17157453Y-14123652D02*
X17166976Y-14114128D01*
X17166976Y-14114128D02*
X17186024Y-14085557D01*
X17186024Y-14085557D02*
X17195548Y-14047462D01*
X17195548Y-14047462D02*
X17195548Y-13971271D01*
X17195548Y-13971271D02*
X17186024Y-13952224D01*
X17186024Y-13952224D02*
X17176500Y-13942700D01*
X17176500Y-13942700D02*
X17157453Y-13933176D01*
X17157453Y-13933176D02*
X17119357Y-13933176D01*
X17119357Y-13933176D02*
X17100310Y-13942700D01*
X17100310Y-13942700D02*
X17090786Y-13952224D01*
X17090786Y-13952224D02*
X17081262Y-13971271D01*
X17081262Y-13971271D02*
X17081262Y-14018890D01*
X17081262Y-14018890D02*
X17090786Y-14037938D01*
X17090786Y-14037938D02*
X17100310Y-14047462D01*
X17100310Y-14047462D02*
X17119357Y-14056986D01*
X17119357Y-14056986D02*
X17157453Y-14056986D01*
X17157453Y-14056986D02*
X17176500Y-14047462D01*
X17176500Y-14047462D02*
X17186024Y-14037938D01*
X17186024Y-14037938D02*
X17195548Y-14018890D01*
X17366976Y-13999843D02*
X17366976Y-14133176D01*
X17319357Y-13923652D02*
X17271738Y-14066509D01*
X17271738Y-14066509D02*
X17395548Y-14066509D01*
X17462214Y-13933176D02*
X17462214Y-13971271D01*
X17538405Y-13933176D02*
X17538405Y-13971271D01*
X17801262Y-14209367D02*
X17791738Y-14199843D01*
X17791738Y-14199843D02*
X17772691Y-14171271D01*
X17772691Y-14171271D02*
X17763167Y-14152224D01*
X17763167Y-14152224D02*
X17753643Y-14123652D01*
X17753643Y-14123652D02*
X17744119Y-14076033D01*
X17744119Y-14076033D02*
X17744119Y-14037938D01*
X17744119Y-14037938D02*
X17753643Y-13990319D01*
X17753643Y-13990319D02*
X17763167Y-13961748D01*
X17763167Y-13961748D02*
X17772691Y-13942700D01*
X17772691Y-13942700D02*
X17791738Y-13914128D01*
X17791738Y-13914128D02*
X17801262Y-13904605D01*
X17963167Y-13999843D02*
X17963167Y-14133176D01*
X17915548Y-13923652D02*
X17867929Y-14066509D01*
X17867929Y-14066509D02*
X17991738Y-14066509D01*
X18163167Y-13933176D02*
X18067929Y-13933176D01*
X18067929Y-13933176D02*
X18058405Y-14028414D01*
X18058405Y-14028414D02*
X18067929Y-14018890D01*
X18067929Y-14018890D02*
X18086976Y-14009367D01*
X18086976Y-14009367D02*
X18134595Y-14009367D01*
X18134595Y-14009367D02*
X18153643Y-14018890D01*
X18153643Y-14018890D02*
X18163167Y-14028414D01*
X18163167Y-14028414D02*
X18172691Y-14047462D01*
X18172691Y-14047462D02*
X18172691Y-14095081D01*
X18172691Y-14095081D02*
X18163167Y-14114128D01*
X18163167Y-14114128D02*
X18153643Y-14123652D01*
X18153643Y-14123652D02*
X18134595Y-14133176D01*
X18134595Y-14133176D02*
X18086976Y-14133176D01*
X18086976Y-14133176D02*
X18067929Y-14123652D01*
X18067929Y-14123652D02*
X18058405Y-14114128D01*
X18378405Y-14133176D02*
X18378405Y-13933176D01*
X18464119Y-14133176D02*
X18464119Y-14028414D01*
X18464119Y-14028414D02*
X18454595Y-14009367D01*
X18454595Y-14009367D02*
X18435548Y-13999843D01*
X18435548Y-13999843D02*
X18406976Y-13999843D01*
X18406976Y-13999843D02*
X18387929Y-14009367D01*
X18387929Y-14009367D02*
X18378405Y-14018890D01*
X18587929Y-14133176D02*
X18568881Y-14123652D01*
X18568881Y-14123652D02*
X18559357Y-14114128D01*
X18559357Y-14114128D02*
X18549834Y-14095081D01*
X18549834Y-14095081D02*
X18549834Y-14037938D01*
X18549834Y-14037938D02*
X18559357Y-14018890D01*
X18559357Y-14018890D02*
X18568881Y-14009367D01*
X18568881Y-14009367D02*
X18587929Y-13999843D01*
X18587929Y-13999843D02*
X18616500Y-13999843D01*
X18616500Y-13999843D02*
X18635548Y-14009367D01*
X18635548Y-14009367D02*
X18645072Y-14018890D01*
X18645072Y-14018890D02*
X18654595Y-14037938D01*
X18654595Y-14037938D02*
X18654595Y-14095081D01*
X18654595Y-14095081D02*
X18645072Y-14114128D01*
X18645072Y-14114128D02*
X18635548Y-14123652D01*
X18635548Y-14123652D02*
X18616500Y-14133176D01*
X18616500Y-14133176D02*
X18587929Y-14133176D01*
X18768881Y-14133176D02*
X18749834Y-14123652D01*
X18749834Y-14123652D02*
X18740310Y-14104605D01*
X18740310Y-14104605D02*
X18740310Y-13933176D01*
X18921262Y-14123652D02*
X18902215Y-14133176D01*
X18902215Y-14133176D02*
X18864119Y-14133176D01*
X18864119Y-14133176D02*
X18845072Y-14123652D01*
X18845072Y-14123652D02*
X18835548Y-14104605D01*
X18835548Y-14104605D02*
X18835548Y-14028414D01*
X18835548Y-14028414D02*
X18845072Y-14009367D01*
X18845072Y-14009367D02*
X18864119Y-13999843D01*
X18864119Y-13999843D02*
X18902215Y-13999843D01*
X18902215Y-13999843D02*
X18921262Y-14009367D01*
X18921262Y-14009367D02*
X18930786Y-14028414D01*
X18930786Y-14028414D02*
X18930786Y-14047462D01*
X18930786Y-14047462D02*
X18835548Y-14066509D01*
X19006976Y-14123652D02*
X19026024Y-14133176D01*
X19026024Y-14133176D02*
X19064119Y-14133176D01*
X19064119Y-14133176D02*
X19083167Y-14123652D01*
X19083167Y-14123652D02*
X19092691Y-14104605D01*
X19092691Y-14104605D02*
X19092691Y-14095081D01*
X19092691Y-14095081D02*
X19083167Y-14076033D01*
X19083167Y-14076033D02*
X19064119Y-14066509D01*
X19064119Y-14066509D02*
X19035548Y-14066509D01*
X19035548Y-14066509D02*
X19016500Y-14056986D01*
X19016500Y-14056986D02*
X19006976Y-14037938D01*
X19006976Y-14037938D02*
X19006976Y-14028414D01*
X19006976Y-14028414D02*
X19016500Y-14009367D01*
X19016500Y-14009367D02*
X19035548Y-13999843D01*
X19035548Y-13999843D02*
X19064119Y-13999843D01*
X19064119Y-13999843D02*
X19083167Y-14009367D01*
X19159357Y-14209367D02*
X19168881Y-14199843D01*
X19168881Y-14199843D02*
X19187929Y-14171271D01*
X19187929Y-14171271D02*
X19197453Y-14152224D01*
X19197453Y-14152224D02*
X19206976Y-14123652D01*
X19206976Y-14123652D02*
X19216500Y-14076033D01*
X19216500Y-14076033D02*
X19216500Y-14037938D01*
X19216500Y-14037938D02*
X19206976Y-13990319D01*
X19206976Y-13990319D02*
X19197453Y-13961748D01*
X19197453Y-13961748D02*
X19187929Y-13942700D01*
X19187929Y-13942700D02*
X19168881Y-13914128D01*
X19168881Y-13914128D02*
X19159357Y-13904605D01*
M02*
