G04 #@! TF.GenerationSoftware,KiCad,Pcbnew,(7.0.0)*
G04 #@! TF.CreationDate,2023-08-14T16:39:54+01:00*
G04 #@! TF.ProjectId,DevKit2022-Kicad7,4465764b-6974-4323-9032-322d4b696361,v1.0*
G04 #@! TF.SameCoordinates,Original*
G04 #@! TF.FileFunction,Soldermask,Bot*
G04 #@! TF.FilePolarity,Negative*
%FSLAX46Y46*%
G04 Gerber Fmt 4.6, Leading zero omitted, Abs format (unit mm)*
G04 Created by KiCad (PCBNEW (7.0.0)) date 2023-08-14 16:39:54*
%MOMM*%
%LPD*%
G01*
G04 APERTURE LIST*
G04 Aperture macros list*
%AMRoundRect*
0 Rectangle with rounded corners*
0 $1 Rounding radius*
0 $2 $3 $4 $5 $6 $7 $8 $9 X,Y pos of 4 corners*
0 Add a 4 corners polygon primitive as box body*
4,1,4,$2,$3,$4,$5,$6,$7,$8,$9,$2,$3,0*
0 Add four circle primitives for the rounded corners*
1,1,$1+$1,$2,$3*
1,1,$1+$1,$4,$5*
1,1,$1+$1,$6,$7*
1,1,$1+$1,$8,$9*
0 Add four rect primitives between the rounded corners*
20,1,$1+$1,$2,$3,$4,$5,0*
20,1,$1+$1,$4,$5,$6,$7,0*
20,1,$1+$1,$6,$7,$8,$9,0*
20,1,$1+$1,$8,$9,$2,$3,0*%
G04 Aperture macros list end*
%ADD10C,2.802000*%
%ADD11RoundRect,0.051000X0.850000X0.850000X-0.850000X0.850000X-0.850000X-0.850000X0.850000X-0.850000X0*%
%ADD12O,1.802000X1.802000*%
%ADD13RoundRect,0.051000X-0.850000X0.850000X-0.850000X-0.850000X0.850000X-0.850000X0.850000X0.850000X0*%
G04 APERTURE END LIST*
D10*
X204928200Y-127994400D03*
X146940000Y-127994400D03*
X204943440Y-104982000D03*
X146940000Y-104982000D03*
D11*
X200026000Y-111332000D03*
D12*
X197485999Y-111331999D03*
X200025999Y-108791999D03*
X197485999Y-108791999D03*
D13*
X200051400Y-103686600D03*
D12*
X200051399Y-106226599D03*
X197511399Y-103686599D03*
X197511399Y-106226599D03*
X194971399Y-103686599D03*
X194971399Y-106226599D03*
X192431399Y-103686599D03*
X192431399Y-106226599D03*
X189891399Y-103686599D03*
X189891399Y-106226599D03*
X187351399Y-103686599D03*
X187351399Y-106226599D03*
X184811399Y-103686599D03*
X184811399Y-106226599D03*
X182271399Y-103686599D03*
X182271399Y-106226599D03*
X179731399Y-103686599D03*
X179731399Y-106226599D03*
X177191399Y-103686599D03*
X177191399Y-106226599D03*
X174651399Y-103686599D03*
X174651399Y-106226599D03*
X172111399Y-103686599D03*
X172111399Y-106226599D03*
X169571399Y-103686599D03*
X169571399Y-106226599D03*
X167031399Y-103686599D03*
X167031399Y-106226599D03*
X164491399Y-103686599D03*
X164491399Y-106226599D03*
X161951399Y-103686599D03*
X161951399Y-106226599D03*
X159411399Y-103686599D03*
X159411399Y-106226599D03*
X156871399Y-103686599D03*
X156871399Y-106226599D03*
X154331399Y-103686599D03*
X154331399Y-106226599D03*
X151791399Y-103686599D03*
X151791399Y-106226599D03*
D13*
X160021000Y-124667000D03*
M02*
