%TF.GenerationSoftware,KiCad,Pcbnew,(7.0.0)*%
%TF.CreationDate,2023-08-14T16:39:57+01:00*%
%TF.ProjectId,DevKit2022-Kicad7,4465764b-6974-4323-9032-322d4b696361,v1.0*%
%TF.SameCoordinates,Original*%
%TF.FileFunction,Drillmap*%
%TF.FilePolarity,Positive*%
%FSLAX45Y45*%
G04 Gerber Fmt 4.5, Leading zero omitted, Abs format (unit mm)*
G04 Created by KiCad (PCBNEW (7.0.0)) date 2023-08-14 16:39:57*
%MOMM*%
%LPD*%
G01*
G04 APERTURE LIST*
%ADD10C,0.150000*%
%ADD11C,0.200000*%
%ADD12C,0.270000*%
G04 APERTURE END LIST*
D10*
X20844000Y-10448200D02*
G75*
G03*
X20544000Y-10148200I-300000J0D01*
G01*
X14344000Y-12848200D02*
G75*
G03*
X14644000Y-13148200I300000J0D01*
G01*
X14644000Y-10148200D02*
G75*
G03*
X14344000Y-10448200I0J-300000D01*
G01*
X14344000Y-12848200D02*
X14344000Y-10448200D01*
X14644000Y-10148200D02*
X20544000Y-10148200D01*
X20844000Y-10448200D02*
X20844000Y-12848200D01*
X20544000Y-13148200D02*
G75*
G03*
X20844000Y-12848200I0J300000D01*
G01*
X20494000Y-13148200D02*
X20544000Y-13148200D01*
X14694000Y-13148200D02*
X20494000Y-13148200D01*
X14694000Y-13148200D02*
X14644000Y-13148200D01*
D11*
D12*
X14559000Y-10363200D02*
X14829000Y-10633200D01*
X14829000Y-10363200D02*
X14559000Y-10633200D01*
X14559000Y-12664440D02*
X14829000Y-12934440D01*
X14829000Y-12664440D02*
X14559000Y-12934440D01*
X20357820Y-12664440D02*
X20627820Y-12934440D01*
X20627820Y-12664440D02*
X20357820Y-12934440D01*
X20359344Y-10363200D02*
X20629344Y-10633200D01*
X20629344Y-10363200D02*
X20359344Y-10633200D01*
D11*
X14584119Y-13449176D02*
X14584119Y-13249176D01*
X14584119Y-13249176D02*
X14631738Y-13249176D01*
X14631738Y-13249176D02*
X14660309Y-13258700D01*
X14660309Y-13258700D02*
X14679357Y-13277748D01*
X14679357Y-13277748D02*
X14688881Y-13296795D01*
X14688881Y-13296795D02*
X14698405Y-13334890D01*
X14698405Y-13334890D02*
X14698405Y-13363462D01*
X14698405Y-13363462D02*
X14688881Y-13401557D01*
X14688881Y-13401557D02*
X14679357Y-13420605D01*
X14679357Y-13420605D02*
X14660309Y-13439652D01*
X14660309Y-13439652D02*
X14631738Y-13449176D01*
X14631738Y-13449176D02*
X14584119Y-13449176D01*
X14784119Y-13449176D02*
X14784119Y-13315843D01*
X14784119Y-13353938D02*
X14793643Y-13334890D01*
X14793643Y-13334890D02*
X14803167Y-13325367D01*
X14803167Y-13325367D02*
X14822214Y-13315843D01*
X14822214Y-13315843D02*
X14841262Y-13315843D01*
X14907928Y-13449176D02*
X14907928Y-13315843D01*
X14907928Y-13249176D02*
X14898405Y-13258700D01*
X14898405Y-13258700D02*
X14907928Y-13268224D01*
X14907928Y-13268224D02*
X14917452Y-13258700D01*
X14917452Y-13258700D02*
X14907928Y-13249176D01*
X14907928Y-13249176D02*
X14907928Y-13268224D01*
X15031738Y-13449176D02*
X15012690Y-13439652D01*
X15012690Y-13439652D02*
X15003167Y-13420605D01*
X15003167Y-13420605D02*
X15003167Y-13249176D01*
X15136500Y-13449176D02*
X15117452Y-13439652D01*
X15117452Y-13439652D02*
X15107928Y-13420605D01*
X15107928Y-13420605D02*
X15107928Y-13249176D01*
X15332690Y-13449176D02*
X15332690Y-13249176D01*
X15332690Y-13249176D02*
X15399357Y-13392033D01*
X15399357Y-13392033D02*
X15466024Y-13249176D01*
X15466024Y-13249176D02*
X15466024Y-13449176D01*
X15646976Y-13449176D02*
X15646976Y-13344414D01*
X15646976Y-13344414D02*
X15637452Y-13325367D01*
X15637452Y-13325367D02*
X15618405Y-13315843D01*
X15618405Y-13315843D02*
X15580309Y-13315843D01*
X15580309Y-13315843D02*
X15561262Y-13325367D01*
X15646976Y-13439652D02*
X15627928Y-13449176D01*
X15627928Y-13449176D02*
X15580309Y-13449176D01*
X15580309Y-13449176D02*
X15561262Y-13439652D01*
X15561262Y-13439652D02*
X15551738Y-13420605D01*
X15551738Y-13420605D02*
X15551738Y-13401557D01*
X15551738Y-13401557D02*
X15561262Y-13382509D01*
X15561262Y-13382509D02*
X15580309Y-13372986D01*
X15580309Y-13372986D02*
X15627928Y-13372986D01*
X15627928Y-13372986D02*
X15646976Y-13363462D01*
X15742214Y-13315843D02*
X15742214Y-13515843D01*
X15742214Y-13325367D02*
X15761262Y-13315843D01*
X15761262Y-13315843D02*
X15799357Y-13315843D01*
X15799357Y-13315843D02*
X15818405Y-13325367D01*
X15818405Y-13325367D02*
X15827928Y-13334890D01*
X15827928Y-13334890D02*
X15837452Y-13353938D01*
X15837452Y-13353938D02*
X15837452Y-13411081D01*
X15837452Y-13411081D02*
X15827928Y-13430128D01*
X15827928Y-13430128D02*
X15818405Y-13439652D01*
X15818405Y-13439652D02*
X15799357Y-13449176D01*
X15799357Y-13449176D02*
X15761262Y-13449176D01*
X15761262Y-13449176D02*
X15742214Y-13439652D01*
X15923167Y-13430128D02*
X15932690Y-13439652D01*
X15932690Y-13439652D02*
X15923167Y-13449176D01*
X15923167Y-13449176D02*
X15913643Y-13439652D01*
X15913643Y-13439652D02*
X15923167Y-13430128D01*
X15923167Y-13430128D02*
X15923167Y-13449176D01*
X15923167Y-13325367D02*
X15932690Y-13334890D01*
X15932690Y-13334890D02*
X15923167Y-13344414D01*
X15923167Y-13344414D02*
X15913643Y-13334890D01*
X15913643Y-13334890D02*
X15923167Y-13325367D01*
X15923167Y-13325367D02*
X15923167Y-13344414D01*
X14136500Y-13695700D02*
X14336500Y-13895700D01*
X14336500Y-13695700D02*
X14136500Y-13895700D01*
X14574595Y-13688224D02*
X14584119Y-13678700D01*
X14584119Y-13678700D02*
X14603167Y-13669176D01*
X14603167Y-13669176D02*
X14650786Y-13669176D01*
X14650786Y-13669176D02*
X14669833Y-13678700D01*
X14669833Y-13678700D02*
X14679357Y-13688224D01*
X14679357Y-13688224D02*
X14688881Y-13707271D01*
X14688881Y-13707271D02*
X14688881Y-13726319D01*
X14688881Y-13726319D02*
X14679357Y-13754890D01*
X14679357Y-13754890D02*
X14565071Y-13869176D01*
X14565071Y-13869176D02*
X14688881Y-13869176D01*
X14774595Y-13850128D02*
X14784119Y-13859652D01*
X14784119Y-13859652D02*
X14774595Y-13869176D01*
X14774595Y-13869176D02*
X14765071Y-13859652D01*
X14765071Y-13859652D02*
X14774595Y-13850128D01*
X14774595Y-13850128D02*
X14774595Y-13869176D01*
X14850786Y-13669176D02*
X14984119Y-13669176D01*
X14984119Y-13669176D02*
X14898405Y-13869176D01*
X15098405Y-13669176D02*
X15117452Y-13669176D01*
X15117452Y-13669176D02*
X15136500Y-13678700D01*
X15136500Y-13678700D02*
X15146024Y-13688224D01*
X15146024Y-13688224D02*
X15155548Y-13707271D01*
X15155548Y-13707271D02*
X15165071Y-13745367D01*
X15165071Y-13745367D02*
X15165071Y-13792986D01*
X15165071Y-13792986D02*
X15155548Y-13831081D01*
X15155548Y-13831081D02*
X15146024Y-13850128D01*
X15146024Y-13850128D02*
X15136500Y-13859652D01*
X15136500Y-13859652D02*
X15117452Y-13869176D01*
X15117452Y-13869176D02*
X15098405Y-13869176D01*
X15098405Y-13869176D02*
X15079357Y-13859652D01*
X15079357Y-13859652D02*
X15069833Y-13850128D01*
X15069833Y-13850128D02*
X15060309Y-13831081D01*
X15060309Y-13831081D02*
X15050786Y-13792986D01*
X15050786Y-13792986D02*
X15050786Y-13745367D01*
X15050786Y-13745367D02*
X15060309Y-13707271D01*
X15060309Y-13707271D02*
X15069833Y-13688224D01*
X15069833Y-13688224D02*
X15079357Y-13678700D01*
X15079357Y-13678700D02*
X15098405Y-13669176D01*
X15288881Y-13669176D02*
X15307929Y-13669176D01*
X15307929Y-13669176D02*
X15326976Y-13678700D01*
X15326976Y-13678700D02*
X15336500Y-13688224D01*
X15336500Y-13688224D02*
X15346024Y-13707271D01*
X15346024Y-13707271D02*
X15355548Y-13745367D01*
X15355548Y-13745367D02*
X15355548Y-13792986D01*
X15355548Y-13792986D02*
X15346024Y-13831081D01*
X15346024Y-13831081D02*
X15336500Y-13850128D01*
X15336500Y-13850128D02*
X15326976Y-13859652D01*
X15326976Y-13859652D02*
X15307929Y-13869176D01*
X15307929Y-13869176D02*
X15288881Y-13869176D01*
X15288881Y-13869176D02*
X15269833Y-13859652D01*
X15269833Y-13859652D02*
X15260309Y-13850128D01*
X15260309Y-13850128D02*
X15250786Y-13831081D01*
X15250786Y-13831081D02*
X15241262Y-13792986D01*
X15241262Y-13792986D02*
X15241262Y-13745367D01*
X15241262Y-13745367D02*
X15250786Y-13707271D01*
X15250786Y-13707271D02*
X15260309Y-13688224D01*
X15260309Y-13688224D02*
X15269833Y-13678700D01*
X15269833Y-13678700D02*
X15288881Y-13669176D01*
X15441262Y-13869176D02*
X15441262Y-13735843D01*
X15441262Y-13754890D02*
X15450786Y-13745367D01*
X15450786Y-13745367D02*
X15469833Y-13735843D01*
X15469833Y-13735843D02*
X15498405Y-13735843D01*
X15498405Y-13735843D02*
X15517452Y-13745367D01*
X15517452Y-13745367D02*
X15526976Y-13764414D01*
X15526976Y-13764414D02*
X15526976Y-13869176D01*
X15526976Y-13764414D02*
X15536500Y-13745367D01*
X15536500Y-13745367D02*
X15555548Y-13735843D01*
X15555548Y-13735843D02*
X15584119Y-13735843D01*
X15584119Y-13735843D02*
X15603167Y-13745367D01*
X15603167Y-13745367D02*
X15612690Y-13764414D01*
X15612690Y-13764414D02*
X15612690Y-13869176D01*
X15707929Y-13869176D02*
X15707929Y-13735843D01*
X15707929Y-13754890D02*
X15717452Y-13745367D01*
X15717452Y-13745367D02*
X15736500Y-13735843D01*
X15736500Y-13735843D02*
X15765071Y-13735843D01*
X15765071Y-13735843D02*
X15784119Y-13745367D01*
X15784119Y-13745367D02*
X15793643Y-13764414D01*
X15793643Y-13764414D02*
X15793643Y-13869176D01*
X15793643Y-13764414D02*
X15803167Y-13745367D01*
X15803167Y-13745367D02*
X15822214Y-13735843D01*
X15822214Y-13735843D02*
X15850786Y-13735843D01*
X15850786Y-13735843D02*
X15869833Y-13745367D01*
X15869833Y-13745367D02*
X15879357Y-13764414D01*
X15879357Y-13764414D02*
X15879357Y-13869176D01*
X16237452Y-13659652D02*
X16066024Y-13916795D01*
X16462214Y-13669176D02*
X16481262Y-13669176D01*
X16481262Y-13669176D02*
X16500310Y-13678700D01*
X16500310Y-13678700D02*
X16509833Y-13688224D01*
X16509833Y-13688224D02*
X16519357Y-13707271D01*
X16519357Y-13707271D02*
X16528881Y-13745367D01*
X16528881Y-13745367D02*
X16528881Y-13792986D01*
X16528881Y-13792986D02*
X16519357Y-13831081D01*
X16519357Y-13831081D02*
X16509833Y-13850128D01*
X16509833Y-13850128D02*
X16500310Y-13859652D01*
X16500310Y-13859652D02*
X16481262Y-13869176D01*
X16481262Y-13869176D02*
X16462214Y-13869176D01*
X16462214Y-13869176D02*
X16443167Y-13859652D01*
X16443167Y-13859652D02*
X16433643Y-13850128D01*
X16433643Y-13850128D02*
X16424119Y-13831081D01*
X16424119Y-13831081D02*
X16414595Y-13792986D01*
X16414595Y-13792986D02*
X16414595Y-13745367D01*
X16414595Y-13745367D02*
X16424119Y-13707271D01*
X16424119Y-13707271D02*
X16433643Y-13688224D01*
X16433643Y-13688224D02*
X16443167Y-13678700D01*
X16443167Y-13678700D02*
X16462214Y-13669176D01*
X16614595Y-13850128D02*
X16624119Y-13859652D01*
X16624119Y-13859652D02*
X16614595Y-13869176D01*
X16614595Y-13869176D02*
X16605071Y-13859652D01*
X16605071Y-13859652D02*
X16614595Y-13850128D01*
X16614595Y-13850128D02*
X16614595Y-13869176D01*
X16814595Y-13869176D02*
X16700310Y-13869176D01*
X16757452Y-13869176D02*
X16757452Y-13669176D01*
X16757452Y-13669176D02*
X16738405Y-13697748D01*
X16738405Y-13697748D02*
X16719357Y-13716795D01*
X16719357Y-13716795D02*
X16700310Y-13726319D01*
X16938405Y-13669176D02*
X16957453Y-13669176D01*
X16957453Y-13669176D02*
X16976500Y-13678700D01*
X16976500Y-13678700D02*
X16986024Y-13688224D01*
X16986024Y-13688224D02*
X16995548Y-13707271D01*
X16995548Y-13707271D02*
X17005072Y-13745367D01*
X17005072Y-13745367D02*
X17005072Y-13792986D01*
X17005072Y-13792986D02*
X16995548Y-13831081D01*
X16995548Y-13831081D02*
X16986024Y-13850128D01*
X16986024Y-13850128D02*
X16976500Y-13859652D01*
X16976500Y-13859652D02*
X16957453Y-13869176D01*
X16957453Y-13869176D02*
X16938405Y-13869176D01*
X16938405Y-13869176D02*
X16919357Y-13859652D01*
X16919357Y-13859652D02*
X16909833Y-13850128D01*
X16909833Y-13850128D02*
X16900310Y-13831081D01*
X16900310Y-13831081D02*
X16890786Y-13792986D01*
X16890786Y-13792986D02*
X16890786Y-13745367D01*
X16890786Y-13745367D02*
X16900310Y-13707271D01*
X16900310Y-13707271D02*
X16909833Y-13688224D01*
X16909833Y-13688224D02*
X16919357Y-13678700D01*
X16919357Y-13678700D02*
X16938405Y-13669176D01*
X17176500Y-13669176D02*
X17138405Y-13669176D01*
X17138405Y-13669176D02*
X17119357Y-13678700D01*
X17119357Y-13678700D02*
X17109833Y-13688224D01*
X17109833Y-13688224D02*
X17090786Y-13716795D01*
X17090786Y-13716795D02*
X17081262Y-13754890D01*
X17081262Y-13754890D02*
X17081262Y-13831081D01*
X17081262Y-13831081D02*
X17090786Y-13850128D01*
X17090786Y-13850128D02*
X17100310Y-13859652D01*
X17100310Y-13859652D02*
X17119357Y-13869176D01*
X17119357Y-13869176D02*
X17157453Y-13869176D01*
X17157453Y-13869176D02*
X17176500Y-13859652D01*
X17176500Y-13859652D02*
X17186024Y-13850128D01*
X17186024Y-13850128D02*
X17195548Y-13831081D01*
X17195548Y-13831081D02*
X17195548Y-13783462D01*
X17195548Y-13783462D02*
X17186024Y-13764414D01*
X17186024Y-13764414D02*
X17176500Y-13754890D01*
X17176500Y-13754890D02*
X17157453Y-13745367D01*
X17157453Y-13745367D02*
X17119357Y-13745367D01*
X17119357Y-13745367D02*
X17100310Y-13754890D01*
X17100310Y-13754890D02*
X17090786Y-13764414D01*
X17090786Y-13764414D02*
X17081262Y-13783462D01*
X17262214Y-13669176D02*
X17386024Y-13669176D01*
X17386024Y-13669176D02*
X17319357Y-13745367D01*
X17319357Y-13745367D02*
X17347929Y-13745367D01*
X17347929Y-13745367D02*
X17366976Y-13754890D01*
X17366976Y-13754890D02*
X17376500Y-13764414D01*
X17376500Y-13764414D02*
X17386024Y-13783462D01*
X17386024Y-13783462D02*
X17386024Y-13831081D01*
X17386024Y-13831081D02*
X17376500Y-13850128D01*
X17376500Y-13850128D02*
X17366976Y-13859652D01*
X17366976Y-13859652D02*
X17347929Y-13869176D01*
X17347929Y-13869176D02*
X17290786Y-13869176D01*
X17290786Y-13869176D02*
X17271738Y-13859652D01*
X17271738Y-13859652D02*
X17262214Y-13850128D01*
X17462214Y-13669176D02*
X17462214Y-13707271D01*
X17538405Y-13669176D02*
X17538405Y-13707271D01*
X17801262Y-13945367D02*
X17791738Y-13935843D01*
X17791738Y-13935843D02*
X17772691Y-13907271D01*
X17772691Y-13907271D02*
X17763167Y-13888224D01*
X17763167Y-13888224D02*
X17753643Y-13859652D01*
X17753643Y-13859652D02*
X17744119Y-13812033D01*
X17744119Y-13812033D02*
X17744119Y-13773938D01*
X17744119Y-13773938D02*
X17753643Y-13726319D01*
X17753643Y-13726319D02*
X17763167Y-13697748D01*
X17763167Y-13697748D02*
X17772691Y-13678700D01*
X17772691Y-13678700D02*
X17791738Y-13650128D01*
X17791738Y-13650128D02*
X17801262Y-13640605D01*
X17963167Y-13735843D02*
X17963167Y-13869176D01*
X17915548Y-13659652D02*
X17867929Y-13802509D01*
X17867929Y-13802509D02*
X17991738Y-13802509D01*
X18187929Y-13869176D02*
X18187929Y-13669176D01*
X18273643Y-13869176D02*
X18273643Y-13764414D01*
X18273643Y-13764414D02*
X18264119Y-13745367D01*
X18264119Y-13745367D02*
X18245072Y-13735843D01*
X18245072Y-13735843D02*
X18216500Y-13735843D01*
X18216500Y-13735843D02*
X18197453Y-13745367D01*
X18197453Y-13745367D02*
X18187929Y-13754890D01*
X18397453Y-13869176D02*
X18378405Y-13859652D01*
X18378405Y-13859652D02*
X18368881Y-13850128D01*
X18368881Y-13850128D02*
X18359357Y-13831081D01*
X18359357Y-13831081D02*
X18359357Y-13773938D01*
X18359357Y-13773938D02*
X18368881Y-13754890D01*
X18368881Y-13754890D02*
X18378405Y-13745367D01*
X18378405Y-13745367D02*
X18397453Y-13735843D01*
X18397453Y-13735843D02*
X18426024Y-13735843D01*
X18426024Y-13735843D02*
X18445072Y-13745367D01*
X18445072Y-13745367D02*
X18454595Y-13754890D01*
X18454595Y-13754890D02*
X18464119Y-13773938D01*
X18464119Y-13773938D02*
X18464119Y-13831081D01*
X18464119Y-13831081D02*
X18454595Y-13850128D01*
X18454595Y-13850128D02*
X18445072Y-13859652D01*
X18445072Y-13859652D02*
X18426024Y-13869176D01*
X18426024Y-13869176D02*
X18397453Y-13869176D01*
X18578405Y-13869176D02*
X18559357Y-13859652D01*
X18559357Y-13859652D02*
X18549834Y-13840605D01*
X18549834Y-13840605D02*
X18549834Y-13669176D01*
X18730786Y-13859652D02*
X18711738Y-13869176D01*
X18711738Y-13869176D02*
X18673643Y-13869176D01*
X18673643Y-13869176D02*
X18654595Y-13859652D01*
X18654595Y-13859652D02*
X18645072Y-13840605D01*
X18645072Y-13840605D02*
X18645072Y-13764414D01*
X18645072Y-13764414D02*
X18654595Y-13745367D01*
X18654595Y-13745367D02*
X18673643Y-13735843D01*
X18673643Y-13735843D02*
X18711738Y-13735843D01*
X18711738Y-13735843D02*
X18730786Y-13745367D01*
X18730786Y-13745367D02*
X18740310Y-13764414D01*
X18740310Y-13764414D02*
X18740310Y-13783462D01*
X18740310Y-13783462D02*
X18645072Y-13802509D01*
X18816500Y-13859652D02*
X18835548Y-13869176D01*
X18835548Y-13869176D02*
X18873643Y-13869176D01*
X18873643Y-13869176D02*
X18892691Y-13859652D01*
X18892691Y-13859652D02*
X18902215Y-13840605D01*
X18902215Y-13840605D02*
X18902215Y-13831081D01*
X18902215Y-13831081D02*
X18892691Y-13812033D01*
X18892691Y-13812033D02*
X18873643Y-13802509D01*
X18873643Y-13802509D02*
X18845072Y-13802509D01*
X18845072Y-13802509D02*
X18826024Y-13792986D01*
X18826024Y-13792986D02*
X18816500Y-13773938D01*
X18816500Y-13773938D02*
X18816500Y-13764414D01*
X18816500Y-13764414D02*
X18826024Y-13745367D01*
X18826024Y-13745367D02*
X18845072Y-13735843D01*
X18845072Y-13735843D02*
X18873643Y-13735843D01*
X18873643Y-13735843D02*
X18892691Y-13745367D01*
X18968881Y-13945367D02*
X18978405Y-13935843D01*
X18978405Y-13935843D02*
X18997453Y-13907271D01*
X18997453Y-13907271D02*
X19006976Y-13888224D01*
X19006976Y-13888224D02*
X19016500Y-13859652D01*
X19016500Y-13859652D02*
X19026024Y-13812033D01*
X19026024Y-13812033D02*
X19026024Y-13773938D01*
X19026024Y-13773938D02*
X19016500Y-13726319D01*
X19016500Y-13726319D02*
X19006976Y-13697748D01*
X19006976Y-13697748D02*
X18997453Y-13678700D01*
X18997453Y-13678700D02*
X18978405Y-13650128D01*
X18978405Y-13650128D02*
X18968881Y-13640605D01*
X19298405Y-13945367D02*
X19288881Y-13935843D01*
X19288881Y-13935843D02*
X19269834Y-13907271D01*
X19269834Y-13907271D02*
X19260310Y-13888224D01*
X19260310Y-13888224D02*
X19250786Y-13859652D01*
X19250786Y-13859652D02*
X19241262Y-13812033D01*
X19241262Y-13812033D02*
X19241262Y-13773938D01*
X19241262Y-13773938D02*
X19250786Y-13726319D01*
X19250786Y-13726319D02*
X19260310Y-13697748D01*
X19260310Y-13697748D02*
X19269834Y-13678700D01*
X19269834Y-13678700D02*
X19288881Y-13650128D01*
X19288881Y-13650128D02*
X19298405Y-13640605D01*
X19374595Y-13735843D02*
X19374595Y-13869176D01*
X19374595Y-13754890D02*
X19384119Y-13745367D01*
X19384119Y-13745367D02*
X19403167Y-13735843D01*
X19403167Y-13735843D02*
X19431738Y-13735843D01*
X19431738Y-13735843D02*
X19450786Y-13745367D01*
X19450786Y-13745367D02*
X19460310Y-13764414D01*
X19460310Y-13764414D02*
X19460310Y-13869176D01*
X19584119Y-13869176D02*
X19565072Y-13859652D01*
X19565072Y-13859652D02*
X19555548Y-13850128D01*
X19555548Y-13850128D02*
X19546024Y-13831081D01*
X19546024Y-13831081D02*
X19546024Y-13773938D01*
X19546024Y-13773938D02*
X19555548Y-13754890D01*
X19555548Y-13754890D02*
X19565072Y-13745367D01*
X19565072Y-13745367D02*
X19584119Y-13735843D01*
X19584119Y-13735843D02*
X19612691Y-13735843D01*
X19612691Y-13735843D02*
X19631738Y-13745367D01*
X19631738Y-13745367D02*
X19641262Y-13754890D01*
X19641262Y-13754890D02*
X19650786Y-13773938D01*
X19650786Y-13773938D02*
X19650786Y-13831081D01*
X19650786Y-13831081D02*
X19641262Y-13850128D01*
X19641262Y-13850128D02*
X19631738Y-13859652D01*
X19631738Y-13859652D02*
X19612691Y-13869176D01*
X19612691Y-13869176D02*
X19584119Y-13869176D01*
X19707929Y-13735843D02*
X19784119Y-13735843D01*
X19736500Y-13669176D02*
X19736500Y-13840605D01*
X19736500Y-13840605D02*
X19746024Y-13859652D01*
X19746024Y-13859652D02*
X19765072Y-13869176D01*
X19765072Y-13869176D02*
X19784119Y-13869176D01*
X19970786Y-13735843D02*
X19970786Y-13935843D01*
X19970786Y-13745367D02*
X19989834Y-13735843D01*
X19989834Y-13735843D02*
X20027929Y-13735843D01*
X20027929Y-13735843D02*
X20046976Y-13745367D01*
X20046976Y-13745367D02*
X20056500Y-13754890D01*
X20056500Y-13754890D02*
X20066024Y-13773938D01*
X20066024Y-13773938D02*
X20066024Y-13831081D01*
X20066024Y-13831081D02*
X20056500Y-13850128D01*
X20056500Y-13850128D02*
X20046976Y-13859652D01*
X20046976Y-13859652D02*
X20027929Y-13869176D01*
X20027929Y-13869176D02*
X19989834Y-13869176D01*
X19989834Y-13869176D02*
X19970786Y-13859652D01*
X20180310Y-13869176D02*
X20161262Y-13859652D01*
X20161262Y-13859652D02*
X20151738Y-13840605D01*
X20151738Y-13840605D02*
X20151738Y-13669176D01*
X20342215Y-13869176D02*
X20342215Y-13764414D01*
X20342215Y-13764414D02*
X20332691Y-13745367D01*
X20332691Y-13745367D02*
X20313643Y-13735843D01*
X20313643Y-13735843D02*
X20275548Y-13735843D01*
X20275548Y-13735843D02*
X20256500Y-13745367D01*
X20342215Y-13859652D02*
X20323167Y-13869176D01*
X20323167Y-13869176D02*
X20275548Y-13869176D01*
X20275548Y-13869176D02*
X20256500Y-13859652D01*
X20256500Y-13859652D02*
X20246976Y-13840605D01*
X20246976Y-13840605D02*
X20246976Y-13821557D01*
X20246976Y-13821557D02*
X20256500Y-13802509D01*
X20256500Y-13802509D02*
X20275548Y-13792986D01*
X20275548Y-13792986D02*
X20323167Y-13792986D01*
X20323167Y-13792986D02*
X20342215Y-13783462D01*
X20408881Y-13735843D02*
X20485072Y-13735843D01*
X20437453Y-13669176D02*
X20437453Y-13840605D01*
X20437453Y-13840605D02*
X20446976Y-13859652D01*
X20446976Y-13859652D02*
X20466024Y-13869176D01*
X20466024Y-13869176D02*
X20485072Y-13869176D01*
X20627929Y-13859652D02*
X20608881Y-13869176D01*
X20608881Y-13869176D02*
X20570786Y-13869176D01*
X20570786Y-13869176D02*
X20551738Y-13859652D01*
X20551738Y-13859652D02*
X20542215Y-13840605D01*
X20542215Y-13840605D02*
X20542215Y-13764414D01*
X20542215Y-13764414D02*
X20551738Y-13745367D01*
X20551738Y-13745367D02*
X20570786Y-13735843D01*
X20570786Y-13735843D02*
X20608881Y-13735843D01*
X20608881Y-13735843D02*
X20627929Y-13745367D01*
X20627929Y-13745367D02*
X20637453Y-13764414D01*
X20637453Y-13764414D02*
X20637453Y-13783462D01*
X20637453Y-13783462D02*
X20542215Y-13802509D01*
X20808881Y-13869176D02*
X20808881Y-13669176D01*
X20808881Y-13859652D02*
X20789834Y-13869176D01*
X20789834Y-13869176D02*
X20751738Y-13869176D01*
X20751738Y-13869176D02*
X20732691Y-13859652D01*
X20732691Y-13859652D02*
X20723167Y-13850128D01*
X20723167Y-13850128D02*
X20713643Y-13831081D01*
X20713643Y-13831081D02*
X20713643Y-13773938D01*
X20713643Y-13773938D02*
X20723167Y-13754890D01*
X20723167Y-13754890D02*
X20732691Y-13745367D01*
X20732691Y-13745367D02*
X20751738Y-13735843D01*
X20751738Y-13735843D02*
X20789834Y-13735843D01*
X20789834Y-13735843D02*
X20808881Y-13745367D01*
X20885072Y-13945367D02*
X20894596Y-13935843D01*
X20894596Y-13935843D02*
X20913643Y-13907271D01*
X20913643Y-13907271D02*
X20923167Y-13888224D01*
X20923167Y-13888224D02*
X20932691Y-13859652D01*
X20932691Y-13859652D02*
X20942215Y-13812033D01*
X20942215Y-13812033D02*
X20942215Y-13773938D01*
X20942215Y-13773938D02*
X20932691Y-13726319D01*
X20932691Y-13726319D02*
X20923167Y-13697748D01*
X20923167Y-13697748D02*
X20913643Y-13678700D01*
X20913643Y-13678700D02*
X20894596Y-13650128D01*
X20894596Y-13650128D02*
X20885072Y-13640605D01*
M02*
